%TF.GenerationSoftware,KiCad,Pcbnew,9.0.5*%
%TF.CreationDate,2026-05-14T23:43:18+05:30*%
%TF.ProjectId,14QRT_Custom_IR_Sensor_Improved,31345152-545f-4437-9573-746f6d5f4952,rev?*%
%TF.SameCoordinates,Original*%
%TF.FileFunction,Paste,Top*%
%TF.FilePolarity,Positive*%
%FSLAX46Y46*%
G04 Gerber Fmt 4.6, Leading zero omitted, Abs format (unit mm)*
G04 Created by KiCad (PCBNEW 9.0.5) date 2026-05-14 23:43:18*
%MOMM*%
%LPD*%
G01*
G04 APERTURE LIST*
G04 Aperture macros list*
%AMRoundRect*
0 Rectangle with rounded corners*
0 $1 Rounding radius*
0 $2 $3 $4 $5 $6 $7 $8 $9 X,Y pos of 4 corners*
0 Add a 4 corners polygon primitive as box body*
4,1,4,$2,$3,$4,$5,$6,$7,$8,$9,$2,$3,0*
0 Add four circle primitives for the rounded corners*
1,1,$1+$1,$2,$3*
1,1,$1+$1,$4,$5*
1,1,$1+$1,$6,$7*
1,1,$1+$1,$8,$9*
0 Add four rect primitives between the rounded corners*
20,1,$1+$1,$2,$3,$4,$5,0*
20,1,$1+$1,$4,$5,$6,$7,0*
20,1,$1+$1,$6,$7,$8,$9,0*
20,1,$1+$1,$8,$9,$2,$3,0*%
G04 Aperture macros list end*
%ADD10RoundRect,0.250000X-0.262500X-0.450000X0.262500X-0.450000X0.262500X0.450000X-0.262500X0.450000X0*%
%ADD11RoundRect,0.250000X-0.450000X0.262500X-0.450000X-0.262500X0.450000X-0.262500X0.450000X0.262500X0*%
%ADD12RoundRect,0.250000X-0.475000X0.250000X-0.475000X-0.250000X0.475000X-0.250000X0.475000X0.250000X0*%
G04 APERTURE END LIST*
D10*
%TO.C,R27*%
X168437500Y-89480000D03*
X170262500Y-89480000D03*
%TD*%
D11*
%TO.C,R12*%
X113210000Y-72327500D03*
X113210000Y-74152500D03*
%TD*%
%TO.C,R9*%
X106220000Y-76627500D03*
X106220000Y-78452500D03*
%TD*%
D10*
%TO.C,R6*%
X78087500Y-118010000D03*
X79912500Y-118010000D03*
%TD*%
D11*
%TO.C,R16*%
X133410000Y-72390000D03*
X133410000Y-74215000D03*
%TD*%
D10*
%TO.C,R25*%
X172647500Y-99770000D03*
X174472500Y-99770000D03*
%TD*%
D11*
%TO.C,R18*%
X142830000Y-72247500D03*
X142830000Y-74072500D03*
%TD*%
%TO.C,R21*%
X166670000Y-84135000D03*
X166670000Y-85960000D03*
%TD*%
D10*
%TO.C,R3*%
X85347500Y-101110000D03*
X87172500Y-101110000D03*
%TD*%
%TO.C,R5*%
X78087500Y-115060000D03*
X79912500Y-115060000D03*
%TD*%
D11*
%TO.C,R11*%
X116160000Y-72327500D03*
X116160000Y-74152500D03*
%TD*%
D10*
%TO.C,R1*%
X89647500Y-89400000D03*
X91472500Y-89400000D03*
%TD*%
D11*
%TO.C,R13*%
X126100000Y-72607500D03*
X126100000Y-74432500D03*
%TD*%
%TO.C,R7*%
X96360000Y-84297500D03*
X96360000Y-86122500D03*
%TD*%
D10*
%TO.C,R23*%
X179045000Y-115520000D03*
X180870000Y-115520000D03*
%TD*%
%TO.C,R28*%
X168437500Y-92430000D03*
X170262500Y-92430000D03*
%TD*%
D11*
%TO.C,R17*%
X145780000Y-72247500D03*
X145780000Y-74072500D03*
%TD*%
D10*
%TO.C,R4*%
X85347500Y-104060000D03*
X87172500Y-104060000D03*
%TD*%
D11*
%TO.C,R22*%
X163720000Y-84135000D03*
X163720000Y-85960000D03*
%TD*%
%TO.C,R19*%
X155720000Y-77397500D03*
X155720000Y-79222500D03*
%TD*%
D10*
%TO.C,R24*%
X179045000Y-118470000D03*
X180870000Y-118470000D03*
%TD*%
D11*
%TO.C,R10*%
X103270000Y-76627500D03*
X103270000Y-78452500D03*
%TD*%
%TO.C,R8*%
X93410000Y-84297500D03*
X93410000Y-86122500D03*
%TD*%
%TO.C,R14*%
X123150000Y-72607500D03*
X123150000Y-74432500D03*
%TD*%
%TO.C,R15*%
X136240000Y-72390000D03*
X136240000Y-74215000D03*
%TD*%
D10*
%TO.C,R26*%
X172897500Y-104650000D03*
X174722500Y-104650000D03*
%TD*%
%TO.C,R2*%
X89647500Y-92350000D03*
X91472500Y-92350000D03*
%TD*%
D12*
%TO.C,C1*%
X155960000Y-89700000D03*
X155960000Y-91600000D03*
%TD*%
D11*
%TO.C,R20*%
X152770000Y-77397500D03*
X152770000Y-79222500D03*
%TD*%
M02*
