M48
; DRILL file {KiCad 9.0.5} date 2026-05-14T23:43:29+0530
; FORMAT={-:-/ absolute / metric / decimal}
; #@! TF.CreationDate,2026-05-14T23:43:29+05:30
; #@! TF.GenerationSoftware,Kicad,Pcbnew,9.0.5
; #@! TF.FileFunction,Plated,1,2,PTH
FMAT,2
METRIC
; #@! TA.AperFunction,Plated,PTH,ViaDrill
T1C0.300
; #@! TA.AperFunction,Plated,PTH,ComponentDrill
T2C0.700
; #@! TA.AperFunction,Plated,PTH,ComponentDrill
T3C1.000
%
G90
G05
T1
X79.93Y-117.9
X87.172Y-104.06
X91.472Y-92.35
X93.41Y-86.123
X103.27Y-78.453
X113.21Y-74.153
X123.15Y-74.432
X133.41Y-74.215
X142.83Y-74.072
X152.77Y-79.222
X155.95Y-91.59
X156.08Y-89.87
X163.72Y-85.96
X170.262Y-92.43
X174.722Y-104.65
X180.87Y-118.47
T2
X105.64Y-83.93
X105.64Y-88.81
X108.18Y-83.93
X108.18Y-88.81
T3
X71.96Y-112.56
X71.96Y-118.06
X74.5Y-112.56
X74.5Y-118.06
X78.82Y-98.88
X78.82Y-104.38
X81.36Y-98.88
X81.36Y-104.38
X83.65Y-84.66
X83.65Y-90.16
X86.19Y-84.66
X86.19Y-90.16
X93.65Y-74.99
X93.65Y-80.49
X96.19Y-74.99
X96.19Y-80.49
X103.74Y-66.93
X103.74Y-72.43
X106.28Y-66.93
X106.28Y-72.43
X111.64Y-82.25
X113.54Y-62.85
X113.54Y-68.35
X114.18Y-82.25
X116.08Y-62.85
X116.08Y-68.35
X116.72Y-82.25
X119.26Y-82.25
X121.8Y-82.25
X123.76Y-62.97
X123.76Y-68.47
X124.34Y-82.25
X126.3Y-62.97
X126.3Y-68.47
X126.88Y-82.25
X129.42Y-82.25
X131.96Y-82.25
X133.47Y-62.87
X133.47Y-68.37
X134.5Y-82.25
X136.01Y-62.87
X136.01Y-68.37
X137.04Y-82.25
X139.58Y-82.25
X142.12Y-82.25
X143.11Y-62.91
X143.11Y-68.41
X144.66Y-82.25
X145.65Y-62.91
X145.65Y-68.41
X147.2Y-82.25
X149.74Y-82.25
X153.14Y-67.76
X153.14Y-73.26
X155.68Y-67.76
X155.68Y-73.26
X163.72Y-74.97
X163.72Y-80.47
X166.26Y-74.97
X166.26Y-80.47
X173.76Y-85.33
X173.76Y-90.83
X176.3Y-85.33
X176.3Y-90.83
X178.91Y-99.23
X178.91Y-104.73
X181.45Y-99.23
X181.45Y-104.73
X184.76Y-112.71
X184.76Y-118.21
X187.3Y-112.71
X187.3Y-118.21
M30
