%TF.GenerationSoftware,KiCad,Pcbnew,9.0.5*%
%TF.CreationDate,2026-05-14T23:43:18+05:30*%
%TF.ProjectId,14QRT_Custom_IR_Sensor_Improved,31345152-545f-4437-9573-746f6d5f4952,rev?*%
%TF.SameCoordinates,Original*%
%TF.FileFunction,Legend,Top*%
%TF.FilePolarity,Positive*%
%FSLAX46Y46*%
G04 Gerber Fmt 4.6, Leading zero omitted, Abs format (unit mm)*
G04 Created by KiCad (PCBNEW 9.0.5) date 2026-05-14 23:43:18*
%MOMM*%
%LPD*%
G01*
G04 APERTURE LIST*
%ADD10C,0.100000*%
%ADD11C,0.150000*%
%ADD12C,0.120000*%
G04 APERTURE END LIST*
D10*
X131918646Y-79892419D02*
X132585312Y-79892419D01*
X132585312Y-79892419D02*
X132156741Y-80892419D01*
X144487693Y-80862419D02*
X143916265Y-80862419D01*
X144201979Y-80862419D02*
X144201979Y-79862419D01*
X144201979Y-79862419D02*
X144106741Y-80005276D01*
X144106741Y-80005276D02*
X144011503Y-80100514D01*
X144011503Y-80100514D02*
X143916265Y-80148133D01*
X144868646Y-79957657D02*
X144916265Y-79910038D01*
X144916265Y-79910038D02*
X145011503Y-79862419D01*
X145011503Y-79862419D02*
X145249598Y-79862419D01*
X145249598Y-79862419D02*
X145344836Y-79910038D01*
X145344836Y-79910038D02*
X145392455Y-79957657D01*
X145392455Y-79957657D02*
X145440074Y-80052895D01*
X145440074Y-80052895D02*
X145440074Y-80148133D01*
X145440074Y-80148133D02*
X145392455Y-80290990D01*
X145392455Y-80290990D02*
X144821027Y-80862419D01*
X144821027Y-80862419D02*
X145440074Y-80862419D01*
X134386741Y-80350990D02*
X134291503Y-80303371D01*
X134291503Y-80303371D02*
X134243884Y-80255752D01*
X134243884Y-80255752D02*
X134196265Y-80160514D01*
X134196265Y-80160514D02*
X134196265Y-80112895D01*
X134196265Y-80112895D02*
X134243884Y-80017657D01*
X134243884Y-80017657D02*
X134291503Y-79970038D01*
X134291503Y-79970038D02*
X134386741Y-79922419D01*
X134386741Y-79922419D02*
X134577217Y-79922419D01*
X134577217Y-79922419D02*
X134672455Y-79970038D01*
X134672455Y-79970038D02*
X134720074Y-80017657D01*
X134720074Y-80017657D02*
X134767693Y-80112895D01*
X134767693Y-80112895D02*
X134767693Y-80160514D01*
X134767693Y-80160514D02*
X134720074Y-80255752D01*
X134720074Y-80255752D02*
X134672455Y-80303371D01*
X134672455Y-80303371D02*
X134577217Y-80350990D01*
X134577217Y-80350990D02*
X134386741Y-80350990D01*
X134386741Y-80350990D02*
X134291503Y-80398609D01*
X134291503Y-80398609D02*
X134243884Y-80446228D01*
X134243884Y-80446228D02*
X134196265Y-80541466D01*
X134196265Y-80541466D02*
X134196265Y-80731942D01*
X134196265Y-80731942D02*
X134243884Y-80827180D01*
X134243884Y-80827180D02*
X134291503Y-80874800D01*
X134291503Y-80874800D02*
X134386741Y-80922419D01*
X134386741Y-80922419D02*
X134577217Y-80922419D01*
X134577217Y-80922419D02*
X134672455Y-80874800D01*
X134672455Y-80874800D02*
X134720074Y-80827180D01*
X134720074Y-80827180D02*
X134767693Y-80731942D01*
X134767693Y-80731942D02*
X134767693Y-80541466D01*
X134767693Y-80541466D02*
X134720074Y-80446228D01*
X134720074Y-80446228D02*
X134672455Y-80398609D01*
X134672455Y-80398609D02*
X134577217Y-80350990D01*
X118946265Y-79977657D02*
X118993884Y-79930038D01*
X118993884Y-79930038D02*
X119089122Y-79882419D01*
X119089122Y-79882419D02*
X119327217Y-79882419D01*
X119327217Y-79882419D02*
X119422455Y-79930038D01*
X119422455Y-79930038D02*
X119470074Y-79977657D01*
X119470074Y-79977657D02*
X119517693Y-80072895D01*
X119517693Y-80072895D02*
X119517693Y-80168133D01*
X119517693Y-80168133D02*
X119470074Y-80310990D01*
X119470074Y-80310990D02*
X118898646Y-80882419D01*
X118898646Y-80882419D02*
X119517693Y-80882419D01*
D11*
X109639819Y-65853220D02*
X110449342Y-65853220D01*
X110449342Y-65853220D02*
X110544580Y-65805601D01*
X110544580Y-65805601D02*
X110592200Y-65757982D01*
X110592200Y-65757982D02*
X110639819Y-65662744D01*
X110639819Y-65662744D02*
X110639819Y-65472268D01*
X110639819Y-65472268D02*
X110592200Y-65377030D01*
X110592200Y-65377030D02*
X110544580Y-65329411D01*
X110544580Y-65329411D02*
X110449342Y-65281792D01*
X110449342Y-65281792D02*
X109639819Y-65281792D01*
X109639819Y-64377030D02*
X109639819Y-64567506D01*
X109639819Y-64567506D02*
X109687438Y-64662744D01*
X109687438Y-64662744D02*
X109735057Y-64710363D01*
X109735057Y-64710363D02*
X109877914Y-64805601D01*
X109877914Y-64805601D02*
X110068390Y-64853220D01*
X110068390Y-64853220D02*
X110449342Y-64853220D01*
X110449342Y-64853220D02*
X110544580Y-64805601D01*
X110544580Y-64805601D02*
X110592200Y-64757982D01*
X110592200Y-64757982D02*
X110639819Y-64662744D01*
X110639819Y-64662744D02*
X110639819Y-64472268D01*
X110639819Y-64472268D02*
X110592200Y-64377030D01*
X110592200Y-64377030D02*
X110544580Y-64329411D01*
X110544580Y-64329411D02*
X110449342Y-64281792D01*
X110449342Y-64281792D02*
X110211247Y-64281792D01*
X110211247Y-64281792D02*
X110116009Y-64329411D01*
X110116009Y-64329411D02*
X110068390Y-64377030D01*
X110068390Y-64377030D02*
X110020771Y-64472268D01*
X110020771Y-64472268D02*
X110020771Y-64662744D01*
X110020771Y-64662744D02*
X110068390Y-64757982D01*
X110068390Y-64757982D02*
X110116009Y-64805601D01*
X110116009Y-64805601D02*
X110211247Y-64853220D01*
D10*
X147237693Y-80892419D02*
X146666265Y-80892419D01*
X146951979Y-80892419D02*
X146951979Y-79892419D01*
X146951979Y-79892419D02*
X146856741Y-80035276D01*
X146856741Y-80035276D02*
X146761503Y-80130514D01*
X146761503Y-80130514D02*
X146666265Y-80178133D01*
X147571027Y-79892419D02*
X148190074Y-79892419D01*
X148190074Y-79892419D02*
X147856741Y-80273371D01*
X147856741Y-80273371D02*
X147999598Y-80273371D01*
X147999598Y-80273371D02*
X148094836Y-80320990D01*
X148094836Y-80320990D02*
X148142455Y-80368609D01*
X148142455Y-80368609D02*
X148190074Y-80463847D01*
X148190074Y-80463847D02*
X148190074Y-80701942D01*
X148190074Y-80701942D02*
X148142455Y-80797180D01*
X148142455Y-80797180D02*
X148094836Y-80844800D01*
X148094836Y-80844800D02*
X147999598Y-80892419D01*
X147999598Y-80892419D02*
X147713884Y-80892419D01*
X147713884Y-80892419D02*
X147618646Y-80844800D01*
X147618646Y-80844800D02*
X147571027Y-80797180D01*
X110577693Y-79990038D02*
X110482455Y-79942419D01*
X110482455Y-79942419D02*
X110339598Y-79942419D01*
X110339598Y-79942419D02*
X110196741Y-79990038D01*
X110196741Y-79990038D02*
X110101503Y-80085276D01*
X110101503Y-80085276D02*
X110053884Y-80180514D01*
X110053884Y-80180514D02*
X110006265Y-80370990D01*
X110006265Y-80370990D02*
X110006265Y-80513847D01*
X110006265Y-80513847D02*
X110053884Y-80704323D01*
X110053884Y-80704323D02*
X110101503Y-80799561D01*
X110101503Y-80799561D02*
X110196741Y-80894800D01*
X110196741Y-80894800D02*
X110339598Y-80942419D01*
X110339598Y-80942419D02*
X110434836Y-80942419D01*
X110434836Y-80942419D02*
X110577693Y-80894800D01*
X110577693Y-80894800D02*
X110625312Y-80847180D01*
X110625312Y-80847180D02*
X110625312Y-80513847D01*
X110625312Y-80513847D02*
X110434836Y-80513847D01*
X111053884Y-80942419D02*
X111053884Y-79942419D01*
X111053884Y-79942419D02*
X111625312Y-80942419D01*
X111625312Y-80942419D02*
X111625312Y-79942419D01*
X112101503Y-80942419D02*
X112101503Y-79942419D01*
X112101503Y-79942419D02*
X112339598Y-79942419D01*
X112339598Y-79942419D02*
X112482455Y-79990038D01*
X112482455Y-79990038D02*
X112577693Y-80085276D01*
X112577693Y-80085276D02*
X112625312Y-80180514D01*
X112625312Y-80180514D02*
X112672931Y-80370990D01*
X112672931Y-80370990D02*
X112672931Y-80513847D01*
X112672931Y-80513847D02*
X112625312Y-80704323D01*
X112625312Y-80704323D02*
X112577693Y-80799561D01*
X112577693Y-80799561D02*
X112482455Y-80894800D01*
X112482455Y-80894800D02*
X112339598Y-80942419D01*
X112339598Y-80942419D02*
X112101503Y-80942419D01*
X121428646Y-79932419D02*
X122047693Y-79932419D01*
X122047693Y-79932419D02*
X121714360Y-80313371D01*
X121714360Y-80313371D02*
X121857217Y-80313371D01*
X121857217Y-80313371D02*
X121952455Y-80360990D01*
X121952455Y-80360990D02*
X122000074Y-80408609D01*
X122000074Y-80408609D02*
X122047693Y-80503847D01*
X122047693Y-80503847D02*
X122047693Y-80741942D01*
X122047693Y-80741942D02*
X122000074Y-80837180D01*
X122000074Y-80837180D02*
X121952455Y-80884800D01*
X121952455Y-80884800D02*
X121857217Y-80932419D01*
X121857217Y-80932419D02*
X121571503Y-80932419D01*
X121571503Y-80932419D02*
X121476265Y-80884800D01*
X121476265Y-80884800D02*
X121428646Y-80837180D01*
X136751503Y-80862419D02*
X136941979Y-80862419D01*
X136941979Y-80862419D02*
X137037217Y-80814800D01*
X137037217Y-80814800D02*
X137084836Y-80767180D01*
X137084836Y-80767180D02*
X137180074Y-80624323D01*
X137180074Y-80624323D02*
X137227693Y-80433847D01*
X137227693Y-80433847D02*
X137227693Y-80052895D01*
X137227693Y-80052895D02*
X137180074Y-79957657D01*
X137180074Y-79957657D02*
X137132455Y-79910038D01*
X137132455Y-79910038D02*
X137037217Y-79862419D01*
X137037217Y-79862419D02*
X136846741Y-79862419D01*
X136846741Y-79862419D02*
X136751503Y-79910038D01*
X136751503Y-79910038D02*
X136703884Y-79957657D01*
X136703884Y-79957657D02*
X136656265Y-80052895D01*
X136656265Y-80052895D02*
X136656265Y-80290990D01*
X136656265Y-80290990D02*
X136703884Y-80386228D01*
X136703884Y-80386228D02*
X136751503Y-80433847D01*
X136751503Y-80433847D02*
X136846741Y-80481466D01*
X136846741Y-80481466D02*
X137037217Y-80481466D01*
X137037217Y-80481466D02*
X137132455Y-80433847D01*
X137132455Y-80433847D02*
X137180074Y-80386228D01*
X137180074Y-80386228D02*
X137227693Y-80290990D01*
X149767693Y-80782419D02*
X149196265Y-80782419D01*
X149481979Y-80782419D02*
X149481979Y-79782419D01*
X149481979Y-79782419D02*
X149386741Y-79925276D01*
X149386741Y-79925276D02*
X149291503Y-80020514D01*
X149291503Y-80020514D02*
X149196265Y-80068133D01*
X150624836Y-80115752D02*
X150624836Y-80782419D01*
X150386741Y-79734800D02*
X150148646Y-80449085D01*
X150148646Y-80449085D02*
X150767693Y-80449085D01*
X139497693Y-80862419D02*
X138926265Y-80862419D01*
X139211979Y-80862419D02*
X139211979Y-79862419D01*
X139211979Y-79862419D02*
X139116741Y-80005276D01*
X139116741Y-80005276D02*
X139021503Y-80100514D01*
X139021503Y-80100514D02*
X138926265Y-80148133D01*
X140116741Y-79862419D02*
X140211979Y-79862419D01*
X140211979Y-79862419D02*
X140307217Y-79910038D01*
X140307217Y-79910038D02*
X140354836Y-79957657D01*
X140354836Y-79957657D02*
X140402455Y-80052895D01*
X140402455Y-80052895D02*
X140450074Y-80243371D01*
X140450074Y-80243371D02*
X140450074Y-80481466D01*
X140450074Y-80481466D02*
X140402455Y-80671942D01*
X140402455Y-80671942D02*
X140354836Y-80767180D01*
X140354836Y-80767180D02*
X140307217Y-80814800D01*
X140307217Y-80814800D02*
X140211979Y-80862419D01*
X140211979Y-80862419D02*
X140116741Y-80862419D01*
X140116741Y-80862419D02*
X140021503Y-80814800D01*
X140021503Y-80814800D02*
X139973884Y-80767180D01*
X139973884Y-80767180D02*
X139926265Y-80671942D01*
X139926265Y-80671942D02*
X139878646Y-80481466D01*
X139878646Y-80481466D02*
X139878646Y-80243371D01*
X139878646Y-80243371D02*
X139926265Y-80052895D01*
X139926265Y-80052895D02*
X139973884Y-79957657D01*
X139973884Y-79957657D02*
X140021503Y-79910038D01*
X140021503Y-79910038D02*
X140116741Y-79862419D01*
X113261027Y-79952419D02*
X113594360Y-80952419D01*
X113594360Y-80952419D02*
X113927693Y-79952419D01*
X114261027Y-80952419D02*
X114261027Y-80285752D01*
X114261027Y-79952419D02*
X114213408Y-80000038D01*
X114213408Y-80000038D02*
X114261027Y-80047657D01*
X114261027Y-80047657D02*
X114308646Y-80000038D01*
X114308646Y-80000038D02*
X114261027Y-79952419D01*
X114261027Y-79952419D02*
X114261027Y-80047657D01*
X114737217Y-80285752D02*
X114737217Y-80952419D01*
X114737217Y-80380990D02*
X114784836Y-80333371D01*
X114784836Y-80333371D02*
X114880074Y-80285752D01*
X114880074Y-80285752D02*
X115022931Y-80285752D01*
X115022931Y-80285752D02*
X115118169Y-80333371D01*
X115118169Y-80333371D02*
X115165788Y-80428609D01*
X115165788Y-80428609D02*
X115165788Y-80952419D01*
D11*
X68496779Y-109979819D02*
X68496779Y-110789342D01*
X68496779Y-110789342D02*
X68544398Y-110884580D01*
X68544398Y-110884580D02*
X68592017Y-110932200D01*
X68592017Y-110932200D02*
X68687255Y-110979819D01*
X68687255Y-110979819D02*
X68877731Y-110979819D01*
X68877731Y-110979819D02*
X68972969Y-110932200D01*
X68972969Y-110932200D02*
X69020588Y-110884580D01*
X69020588Y-110884580D02*
X69068207Y-110789342D01*
X69068207Y-110789342D02*
X69068207Y-109979819D01*
X69449160Y-109979819D02*
X70068207Y-109979819D01*
X70068207Y-109979819D02*
X69734874Y-110360771D01*
X69734874Y-110360771D02*
X69877731Y-110360771D01*
X69877731Y-110360771D02*
X69972969Y-110408390D01*
X69972969Y-110408390D02*
X70020588Y-110456009D01*
X70020588Y-110456009D02*
X70068207Y-110551247D01*
X70068207Y-110551247D02*
X70068207Y-110789342D01*
X70068207Y-110789342D02*
X70020588Y-110884580D01*
X70020588Y-110884580D02*
X69972969Y-110932200D01*
X69972969Y-110932200D02*
X69877731Y-110979819D01*
X69877731Y-110979819D02*
X69592017Y-110979819D01*
X69592017Y-110979819D02*
X69496779Y-110932200D01*
X69496779Y-110932200D02*
X69449160Y-110884580D01*
D10*
X142067693Y-80792419D02*
X141496265Y-80792419D01*
X141781979Y-80792419D02*
X141781979Y-79792419D01*
X141781979Y-79792419D02*
X141686741Y-79935276D01*
X141686741Y-79935276D02*
X141591503Y-80030514D01*
X141591503Y-80030514D02*
X141496265Y-80078133D01*
X143020074Y-80792419D02*
X142448646Y-80792419D01*
X142734360Y-80792419D02*
X142734360Y-79792419D01*
X142734360Y-79792419D02*
X142639122Y-79935276D01*
X142639122Y-79935276D02*
X142543884Y-80030514D01*
X142543884Y-80030514D02*
X142448646Y-80078133D01*
X129652455Y-79732419D02*
X129461979Y-79732419D01*
X129461979Y-79732419D02*
X129366741Y-79780038D01*
X129366741Y-79780038D02*
X129319122Y-79827657D01*
X129319122Y-79827657D02*
X129223884Y-79970514D01*
X129223884Y-79970514D02*
X129176265Y-80160990D01*
X129176265Y-80160990D02*
X129176265Y-80541942D01*
X129176265Y-80541942D02*
X129223884Y-80637180D01*
X129223884Y-80637180D02*
X129271503Y-80684800D01*
X129271503Y-80684800D02*
X129366741Y-80732419D01*
X129366741Y-80732419D02*
X129557217Y-80732419D01*
X129557217Y-80732419D02*
X129652455Y-80684800D01*
X129652455Y-80684800D02*
X129700074Y-80637180D01*
X129700074Y-80637180D02*
X129747693Y-80541942D01*
X129747693Y-80541942D02*
X129747693Y-80303847D01*
X129747693Y-80303847D02*
X129700074Y-80208609D01*
X129700074Y-80208609D02*
X129652455Y-80160990D01*
X129652455Y-80160990D02*
X129557217Y-80113371D01*
X129557217Y-80113371D02*
X129366741Y-80113371D01*
X129366741Y-80113371D02*
X129271503Y-80160990D01*
X129271503Y-80160990D02*
X129223884Y-80208609D01*
X129223884Y-80208609D02*
X129176265Y-80303847D01*
X117017693Y-80882419D02*
X116446265Y-80882419D01*
X116731979Y-80882419D02*
X116731979Y-79882419D01*
X116731979Y-79882419D02*
X116636741Y-80025276D01*
X116636741Y-80025276D02*
X116541503Y-80120514D01*
X116541503Y-80120514D02*
X116446265Y-80168133D01*
X127130074Y-79802475D02*
X126653884Y-79802475D01*
X126653884Y-79802475D02*
X126606265Y-80278665D01*
X126606265Y-80278665D02*
X126653884Y-80231046D01*
X126653884Y-80231046D02*
X126749122Y-80183427D01*
X126749122Y-80183427D02*
X126987217Y-80183427D01*
X126987217Y-80183427D02*
X127082455Y-80231046D01*
X127082455Y-80231046D02*
X127130074Y-80278665D01*
X127130074Y-80278665D02*
X127177693Y-80373903D01*
X127177693Y-80373903D02*
X127177693Y-80611998D01*
X127177693Y-80611998D02*
X127130074Y-80707236D01*
X127130074Y-80707236D02*
X127082455Y-80754856D01*
X127082455Y-80754856D02*
X126987217Y-80802475D01*
X126987217Y-80802475D02*
X126749122Y-80802475D01*
X126749122Y-80802475D02*
X126653884Y-80754856D01*
X126653884Y-80754856D02*
X126606265Y-80707236D01*
X124482455Y-80115752D02*
X124482455Y-80782419D01*
X124244360Y-79734800D02*
X124006265Y-80449085D01*
X124006265Y-80449085D02*
X124625312Y-80449085D01*
D11*
X168707142Y-88284819D02*
X168373809Y-87808628D01*
X168135714Y-88284819D02*
X168135714Y-87284819D01*
X168135714Y-87284819D02*
X168516666Y-87284819D01*
X168516666Y-87284819D02*
X168611904Y-87332438D01*
X168611904Y-87332438D02*
X168659523Y-87380057D01*
X168659523Y-87380057D02*
X168707142Y-87475295D01*
X168707142Y-87475295D02*
X168707142Y-87618152D01*
X168707142Y-87618152D02*
X168659523Y-87713390D01*
X168659523Y-87713390D02*
X168611904Y-87761009D01*
X168611904Y-87761009D02*
X168516666Y-87808628D01*
X168516666Y-87808628D02*
X168135714Y-87808628D01*
X169088095Y-87380057D02*
X169135714Y-87332438D01*
X169135714Y-87332438D02*
X169230952Y-87284819D01*
X169230952Y-87284819D02*
X169469047Y-87284819D01*
X169469047Y-87284819D02*
X169564285Y-87332438D01*
X169564285Y-87332438D02*
X169611904Y-87380057D01*
X169611904Y-87380057D02*
X169659523Y-87475295D01*
X169659523Y-87475295D02*
X169659523Y-87570533D01*
X169659523Y-87570533D02*
X169611904Y-87713390D01*
X169611904Y-87713390D02*
X169040476Y-88284819D01*
X169040476Y-88284819D02*
X169659523Y-88284819D01*
X169992857Y-87284819D02*
X170659523Y-87284819D01*
X170659523Y-87284819D02*
X170230952Y-88284819D01*
X108324819Y-77706666D02*
X107848628Y-78039999D01*
X108324819Y-78278094D02*
X107324819Y-78278094D01*
X107324819Y-78278094D02*
X107324819Y-77897142D01*
X107324819Y-77897142D02*
X107372438Y-77801904D01*
X107372438Y-77801904D02*
X107420057Y-77754285D01*
X107420057Y-77754285D02*
X107515295Y-77706666D01*
X107515295Y-77706666D02*
X107658152Y-77706666D01*
X107658152Y-77706666D02*
X107753390Y-77754285D01*
X107753390Y-77754285D02*
X107801009Y-77801904D01*
X107801009Y-77801904D02*
X107848628Y-77897142D01*
X107848628Y-77897142D02*
X107848628Y-78278094D01*
X108324819Y-77230475D02*
X108324819Y-77039999D01*
X108324819Y-77039999D02*
X108277200Y-76944761D01*
X108277200Y-76944761D02*
X108229580Y-76897142D01*
X108229580Y-76897142D02*
X108086723Y-76801904D01*
X108086723Y-76801904D02*
X107896247Y-76754285D01*
X107896247Y-76754285D02*
X107515295Y-76754285D01*
X107515295Y-76754285D02*
X107420057Y-76801904D01*
X107420057Y-76801904D02*
X107372438Y-76849523D01*
X107372438Y-76849523D02*
X107324819Y-76944761D01*
X107324819Y-76944761D02*
X107324819Y-77135237D01*
X107324819Y-77135237D02*
X107372438Y-77230475D01*
X107372438Y-77230475D02*
X107420057Y-77278094D01*
X107420057Y-77278094D02*
X107515295Y-77325713D01*
X107515295Y-77325713D02*
X107753390Y-77325713D01*
X107753390Y-77325713D02*
X107848628Y-77278094D01*
X107848628Y-77278094D02*
X107896247Y-77230475D01*
X107896247Y-77230475D02*
X107943866Y-77135237D01*
X107943866Y-77135237D02*
X107943866Y-76944761D01*
X107943866Y-76944761D02*
X107896247Y-76849523D01*
X107896247Y-76849523D02*
X107848628Y-76801904D01*
X107848628Y-76801904D02*
X107753390Y-76754285D01*
X150064819Y-71748094D02*
X150874342Y-71748094D01*
X150874342Y-71748094D02*
X150969580Y-71700475D01*
X150969580Y-71700475D02*
X151017200Y-71652856D01*
X151017200Y-71652856D02*
X151064819Y-71557618D01*
X151064819Y-71557618D02*
X151064819Y-71367142D01*
X151064819Y-71367142D02*
X151017200Y-71271904D01*
X151017200Y-71271904D02*
X150969580Y-71224285D01*
X150969580Y-71224285D02*
X150874342Y-71176666D01*
X150874342Y-71176666D02*
X150064819Y-71176666D01*
X151064819Y-70176666D02*
X151064819Y-70748094D01*
X151064819Y-70462380D02*
X150064819Y-70462380D01*
X150064819Y-70462380D02*
X150207676Y-70557618D01*
X150207676Y-70557618D02*
X150302914Y-70652856D01*
X150302914Y-70652856D02*
X150350533Y-70748094D01*
X150064819Y-69557618D02*
X150064819Y-69462380D01*
X150064819Y-69462380D02*
X150112438Y-69367142D01*
X150112438Y-69367142D02*
X150160057Y-69319523D01*
X150160057Y-69319523D02*
X150255295Y-69271904D01*
X150255295Y-69271904D02*
X150445771Y-69224285D01*
X150445771Y-69224285D02*
X150683866Y-69224285D01*
X150683866Y-69224285D02*
X150874342Y-69271904D01*
X150874342Y-69271904D02*
X150969580Y-69319523D01*
X150969580Y-69319523D02*
X151017200Y-69367142D01*
X151017200Y-69367142D02*
X151064819Y-69462380D01*
X151064819Y-69462380D02*
X151064819Y-69557618D01*
X151064819Y-69557618D02*
X151017200Y-69652856D01*
X151017200Y-69652856D02*
X150969580Y-69700475D01*
X150969580Y-69700475D02*
X150874342Y-69748094D01*
X150874342Y-69748094D02*
X150683866Y-69795713D01*
X150683866Y-69795713D02*
X150445771Y-69795713D01*
X150445771Y-69795713D02*
X150255295Y-69748094D01*
X150255295Y-69748094D02*
X150160057Y-69700475D01*
X150160057Y-69700475D02*
X150112438Y-69652856D01*
X150112438Y-69652856D02*
X150064819Y-69557618D01*
X173764642Y-98084819D02*
X173431309Y-97608628D01*
X173193214Y-98084819D02*
X173193214Y-97084819D01*
X173193214Y-97084819D02*
X173574166Y-97084819D01*
X173574166Y-97084819D02*
X173669404Y-97132438D01*
X173669404Y-97132438D02*
X173717023Y-97180057D01*
X173717023Y-97180057D02*
X173764642Y-97275295D01*
X173764642Y-97275295D02*
X173764642Y-97418152D01*
X173764642Y-97418152D02*
X173717023Y-97513390D01*
X173717023Y-97513390D02*
X173669404Y-97561009D01*
X173669404Y-97561009D02*
X173574166Y-97608628D01*
X173574166Y-97608628D02*
X173193214Y-97608628D01*
X174145595Y-97180057D02*
X174193214Y-97132438D01*
X174193214Y-97132438D02*
X174288452Y-97084819D01*
X174288452Y-97084819D02*
X174526547Y-97084819D01*
X174526547Y-97084819D02*
X174621785Y-97132438D01*
X174621785Y-97132438D02*
X174669404Y-97180057D01*
X174669404Y-97180057D02*
X174717023Y-97275295D01*
X174717023Y-97275295D02*
X174717023Y-97370533D01*
X174717023Y-97370533D02*
X174669404Y-97513390D01*
X174669404Y-97513390D02*
X174097976Y-98084819D01*
X174097976Y-98084819D02*
X174717023Y-98084819D01*
X175621785Y-97084819D02*
X175145595Y-97084819D01*
X175145595Y-97084819D02*
X175097976Y-97561009D01*
X175097976Y-97561009D02*
X175145595Y-97513390D01*
X175145595Y-97513390D02*
X175240833Y-97465771D01*
X175240833Y-97465771D02*
X175478928Y-97465771D01*
X175478928Y-97465771D02*
X175574166Y-97513390D01*
X175574166Y-97513390D02*
X175621785Y-97561009D01*
X175621785Y-97561009D02*
X175669404Y-97656247D01*
X175669404Y-97656247D02*
X175669404Y-97894342D01*
X175669404Y-97894342D02*
X175621785Y-97989580D01*
X175621785Y-97989580D02*
X175574166Y-98037200D01*
X175574166Y-98037200D02*
X175478928Y-98084819D01*
X175478928Y-98084819D02*
X175240833Y-98084819D01*
X175240833Y-98084819D02*
X175145595Y-98037200D01*
X175145595Y-98037200D02*
X175097976Y-97989580D01*
X168774819Y-85690357D02*
X168298628Y-86023690D01*
X168774819Y-86261785D02*
X167774819Y-86261785D01*
X167774819Y-86261785D02*
X167774819Y-85880833D01*
X167774819Y-85880833D02*
X167822438Y-85785595D01*
X167822438Y-85785595D02*
X167870057Y-85737976D01*
X167870057Y-85737976D02*
X167965295Y-85690357D01*
X167965295Y-85690357D02*
X168108152Y-85690357D01*
X168108152Y-85690357D02*
X168203390Y-85737976D01*
X168203390Y-85737976D02*
X168251009Y-85785595D01*
X168251009Y-85785595D02*
X168298628Y-85880833D01*
X168298628Y-85880833D02*
X168298628Y-86261785D01*
X167870057Y-85309404D02*
X167822438Y-85261785D01*
X167822438Y-85261785D02*
X167774819Y-85166547D01*
X167774819Y-85166547D02*
X167774819Y-84928452D01*
X167774819Y-84928452D02*
X167822438Y-84833214D01*
X167822438Y-84833214D02*
X167870057Y-84785595D01*
X167870057Y-84785595D02*
X167965295Y-84737976D01*
X167965295Y-84737976D02*
X168060533Y-84737976D01*
X168060533Y-84737976D02*
X168203390Y-84785595D01*
X168203390Y-84785595D02*
X168774819Y-85357023D01*
X168774819Y-85357023D02*
X168774819Y-84737976D01*
X168774819Y-83785595D02*
X168774819Y-84357023D01*
X168774819Y-84071309D02*
X167774819Y-84071309D01*
X167774819Y-84071309D02*
X167917676Y-84166547D01*
X167917676Y-84166547D02*
X168012914Y-84261785D01*
X168012914Y-84261785D02*
X168060533Y-84357023D01*
X86093333Y-99914819D02*
X85760000Y-99438628D01*
X85521905Y-99914819D02*
X85521905Y-98914819D01*
X85521905Y-98914819D02*
X85902857Y-98914819D01*
X85902857Y-98914819D02*
X85998095Y-98962438D01*
X85998095Y-98962438D02*
X86045714Y-99010057D01*
X86045714Y-99010057D02*
X86093333Y-99105295D01*
X86093333Y-99105295D02*
X86093333Y-99248152D01*
X86093333Y-99248152D02*
X86045714Y-99343390D01*
X86045714Y-99343390D02*
X85998095Y-99391009D01*
X85998095Y-99391009D02*
X85902857Y-99438628D01*
X85902857Y-99438628D02*
X85521905Y-99438628D01*
X86426667Y-98914819D02*
X87045714Y-98914819D01*
X87045714Y-98914819D02*
X86712381Y-99295771D01*
X86712381Y-99295771D02*
X86855238Y-99295771D01*
X86855238Y-99295771D02*
X86950476Y-99343390D01*
X86950476Y-99343390D02*
X86998095Y-99391009D01*
X86998095Y-99391009D02*
X87045714Y-99486247D01*
X87045714Y-99486247D02*
X87045714Y-99724342D01*
X87045714Y-99724342D02*
X86998095Y-99819580D01*
X86998095Y-99819580D02*
X86950476Y-99867200D01*
X86950476Y-99867200D02*
X86855238Y-99914819D01*
X86855238Y-99914819D02*
X86569524Y-99914819D01*
X86569524Y-99914819D02*
X86474286Y-99867200D01*
X86474286Y-99867200D02*
X86426667Y-99819580D01*
X78833333Y-113864819D02*
X78500000Y-113388628D01*
X78261905Y-113864819D02*
X78261905Y-112864819D01*
X78261905Y-112864819D02*
X78642857Y-112864819D01*
X78642857Y-112864819D02*
X78738095Y-112912438D01*
X78738095Y-112912438D02*
X78785714Y-112960057D01*
X78785714Y-112960057D02*
X78833333Y-113055295D01*
X78833333Y-113055295D02*
X78833333Y-113198152D01*
X78833333Y-113198152D02*
X78785714Y-113293390D01*
X78785714Y-113293390D02*
X78738095Y-113341009D01*
X78738095Y-113341009D02*
X78642857Y-113388628D01*
X78642857Y-113388628D02*
X78261905Y-113388628D01*
X79738095Y-112864819D02*
X79261905Y-112864819D01*
X79261905Y-112864819D02*
X79214286Y-113341009D01*
X79214286Y-113341009D02*
X79261905Y-113293390D01*
X79261905Y-113293390D02*
X79357143Y-113245771D01*
X79357143Y-113245771D02*
X79595238Y-113245771D01*
X79595238Y-113245771D02*
X79690476Y-113293390D01*
X79690476Y-113293390D02*
X79738095Y-113341009D01*
X79738095Y-113341009D02*
X79785714Y-113436247D01*
X79785714Y-113436247D02*
X79785714Y-113674342D01*
X79785714Y-113674342D02*
X79738095Y-113769580D01*
X79738095Y-113769580D02*
X79690476Y-113817200D01*
X79690476Y-113817200D02*
X79595238Y-113864819D01*
X79595238Y-113864819D02*
X79357143Y-113864819D01*
X79357143Y-113864819D02*
X79261905Y-113817200D01*
X79261905Y-113817200D02*
X79214286Y-113769580D01*
X178334819Y-90338094D02*
X179144342Y-90338094D01*
X179144342Y-90338094D02*
X179239580Y-90290475D01*
X179239580Y-90290475D02*
X179287200Y-90242856D01*
X179287200Y-90242856D02*
X179334819Y-90147618D01*
X179334819Y-90147618D02*
X179334819Y-89957142D01*
X179334819Y-89957142D02*
X179287200Y-89861904D01*
X179287200Y-89861904D02*
X179239580Y-89814285D01*
X179239580Y-89814285D02*
X179144342Y-89766666D01*
X179144342Y-89766666D02*
X178334819Y-89766666D01*
X179334819Y-88766666D02*
X179334819Y-89338094D01*
X179334819Y-89052380D02*
X178334819Y-89052380D01*
X178334819Y-89052380D02*
X178477676Y-89147618D01*
X178477676Y-89147618D02*
X178572914Y-89242856D01*
X178572914Y-89242856D02*
X178620533Y-89338094D01*
X178668152Y-87909523D02*
X179334819Y-87909523D01*
X178287200Y-88147618D02*
X179001485Y-88385713D01*
X179001485Y-88385713D02*
X179001485Y-87766666D01*
X118264819Y-73882857D02*
X117788628Y-74216190D01*
X118264819Y-74454285D02*
X117264819Y-74454285D01*
X117264819Y-74454285D02*
X117264819Y-74073333D01*
X117264819Y-74073333D02*
X117312438Y-73978095D01*
X117312438Y-73978095D02*
X117360057Y-73930476D01*
X117360057Y-73930476D02*
X117455295Y-73882857D01*
X117455295Y-73882857D02*
X117598152Y-73882857D01*
X117598152Y-73882857D02*
X117693390Y-73930476D01*
X117693390Y-73930476D02*
X117741009Y-73978095D01*
X117741009Y-73978095D02*
X117788628Y-74073333D01*
X117788628Y-74073333D02*
X117788628Y-74454285D01*
X118264819Y-72930476D02*
X118264819Y-73501904D01*
X118264819Y-73216190D02*
X117264819Y-73216190D01*
X117264819Y-73216190D02*
X117407676Y-73311428D01*
X117407676Y-73311428D02*
X117502914Y-73406666D01*
X117502914Y-73406666D02*
X117550533Y-73501904D01*
X118264819Y-71978095D02*
X118264819Y-72549523D01*
X118264819Y-72263809D02*
X117264819Y-72263809D01*
X117264819Y-72263809D02*
X117407676Y-72359047D01*
X117407676Y-72359047D02*
X117502914Y-72454285D01*
X117502914Y-72454285D02*
X117550533Y-72549523D01*
X90393333Y-88204819D02*
X90060000Y-87728628D01*
X89821905Y-88204819D02*
X89821905Y-87204819D01*
X89821905Y-87204819D02*
X90202857Y-87204819D01*
X90202857Y-87204819D02*
X90298095Y-87252438D01*
X90298095Y-87252438D02*
X90345714Y-87300057D01*
X90345714Y-87300057D02*
X90393333Y-87395295D01*
X90393333Y-87395295D02*
X90393333Y-87538152D01*
X90393333Y-87538152D02*
X90345714Y-87633390D01*
X90345714Y-87633390D02*
X90298095Y-87681009D01*
X90298095Y-87681009D02*
X90202857Y-87728628D01*
X90202857Y-87728628D02*
X89821905Y-87728628D01*
X91345714Y-88204819D02*
X90774286Y-88204819D01*
X91060000Y-88204819D02*
X91060000Y-87204819D01*
X91060000Y-87204819D02*
X90964762Y-87347676D01*
X90964762Y-87347676D02*
X90869524Y-87442914D01*
X90869524Y-87442914D02*
X90774286Y-87490533D01*
X108504819Y-81523333D02*
X109219104Y-81523333D01*
X109219104Y-81523333D02*
X109361961Y-81570952D01*
X109361961Y-81570952D02*
X109457200Y-81666190D01*
X109457200Y-81666190D02*
X109504819Y-81809047D01*
X109504819Y-81809047D02*
X109504819Y-81904285D01*
X109504819Y-80523333D02*
X109504819Y-81094761D01*
X109504819Y-80809047D02*
X108504819Y-80809047D01*
X108504819Y-80809047D02*
X108647676Y-80904285D01*
X108647676Y-80904285D02*
X108742914Y-80999523D01*
X108742914Y-80999523D02*
X108790533Y-81094761D01*
X120684819Y-66481904D02*
X121494342Y-66481904D01*
X121494342Y-66481904D02*
X121589580Y-66434285D01*
X121589580Y-66434285D02*
X121637200Y-66386666D01*
X121637200Y-66386666D02*
X121684819Y-66291428D01*
X121684819Y-66291428D02*
X121684819Y-66100952D01*
X121684819Y-66100952D02*
X121637200Y-66005714D01*
X121637200Y-66005714D02*
X121589580Y-65958095D01*
X121589580Y-65958095D02*
X121494342Y-65910476D01*
X121494342Y-65910476D02*
X120684819Y-65910476D01*
X120684819Y-65529523D02*
X120684819Y-64862857D01*
X120684819Y-64862857D02*
X121684819Y-65291428D01*
X183851905Y-106084819D02*
X183851905Y-106894342D01*
X183851905Y-106894342D02*
X183899524Y-106989580D01*
X183899524Y-106989580D02*
X183947143Y-107037200D01*
X183947143Y-107037200D02*
X184042381Y-107084819D01*
X184042381Y-107084819D02*
X184232857Y-107084819D01*
X184232857Y-107084819D02*
X184328095Y-107037200D01*
X184328095Y-107037200D02*
X184375714Y-106989580D01*
X184375714Y-106989580D02*
X184423333Y-106894342D01*
X184423333Y-106894342D02*
X184423333Y-106084819D01*
X185423333Y-107084819D02*
X184851905Y-107084819D01*
X185137619Y-107084819D02*
X185137619Y-106084819D01*
X185137619Y-106084819D02*
X185042381Y-106227676D01*
X185042381Y-106227676D02*
X184947143Y-106322914D01*
X184947143Y-106322914D02*
X184851905Y-106370533D01*
X185756667Y-106084819D02*
X186375714Y-106084819D01*
X186375714Y-106084819D02*
X186042381Y-106465771D01*
X186042381Y-106465771D02*
X186185238Y-106465771D01*
X186185238Y-106465771D02*
X186280476Y-106513390D01*
X186280476Y-106513390D02*
X186328095Y-106561009D01*
X186328095Y-106561009D02*
X186375714Y-106656247D01*
X186375714Y-106656247D02*
X186375714Y-106894342D01*
X186375714Y-106894342D02*
X186328095Y-106989580D01*
X186328095Y-106989580D02*
X186280476Y-107037200D01*
X186280476Y-107037200D02*
X186185238Y-107084819D01*
X186185238Y-107084819D02*
X185899524Y-107084819D01*
X185899524Y-107084819D02*
X185804286Y-107037200D01*
X185804286Y-107037200D02*
X185756667Y-106989580D01*
X128104819Y-74332857D02*
X127628628Y-74666190D01*
X128104819Y-74904285D02*
X127104819Y-74904285D01*
X127104819Y-74904285D02*
X127104819Y-74523333D01*
X127104819Y-74523333D02*
X127152438Y-74428095D01*
X127152438Y-74428095D02*
X127200057Y-74380476D01*
X127200057Y-74380476D02*
X127295295Y-74332857D01*
X127295295Y-74332857D02*
X127438152Y-74332857D01*
X127438152Y-74332857D02*
X127533390Y-74380476D01*
X127533390Y-74380476D02*
X127581009Y-74428095D01*
X127581009Y-74428095D02*
X127628628Y-74523333D01*
X127628628Y-74523333D02*
X127628628Y-74904285D01*
X128104819Y-73380476D02*
X128104819Y-73951904D01*
X128104819Y-73666190D02*
X127104819Y-73666190D01*
X127104819Y-73666190D02*
X127247676Y-73761428D01*
X127247676Y-73761428D02*
X127342914Y-73856666D01*
X127342914Y-73856666D02*
X127390533Y-73951904D01*
X127104819Y-73047142D02*
X127104819Y-72428095D01*
X127104819Y-72428095D02*
X127485771Y-72761428D01*
X127485771Y-72761428D02*
X127485771Y-72618571D01*
X127485771Y-72618571D02*
X127533390Y-72523333D01*
X127533390Y-72523333D02*
X127581009Y-72475714D01*
X127581009Y-72475714D02*
X127676247Y-72428095D01*
X127676247Y-72428095D02*
X127914342Y-72428095D01*
X127914342Y-72428095D02*
X128009580Y-72475714D01*
X128009580Y-72475714D02*
X128057200Y-72523333D01*
X128057200Y-72523333D02*
X128104819Y-72618571D01*
X128104819Y-72618571D02*
X128104819Y-72904285D01*
X128104819Y-72904285D02*
X128057200Y-72999523D01*
X128057200Y-72999523D02*
X128009580Y-73047142D01*
X98348209Y-85379166D02*
X97872018Y-85712499D01*
X98348209Y-85950594D02*
X97348209Y-85950594D01*
X97348209Y-85950594D02*
X97348209Y-85569642D01*
X97348209Y-85569642D02*
X97395828Y-85474404D01*
X97395828Y-85474404D02*
X97443447Y-85426785D01*
X97443447Y-85426785D02*
X97538685Y-85379166D01*
X97538685Y-85379166D02*
X97681542Y-85379166D01*
X97681542Y-85379166D02*
X97776780Y-85426785D01*
X97776780Y-85426785D02*
X97824399Y-85474404D01*
X97824399Y-85474404D02*
X97872018Y-85569642D01*
X97872018Y-85569642D02*
X97872018Y-85950594D01*
X97348209Y-85045832D02*
X97348209Y-84379166D01*
X97348209Y-84379166D02*
X98348209Y-84807737D01*
X100664819Y-70441904D02*
X101474342Y-70441904D01*
X101474342Y-70441904D02*
X101569580Y-70394285D01*
X101569580Y-70394285D02*
X101617200Y-70346666D01*
X101617200Y-70346666D02*
X101664819Y-70251428D01*
X101664819Y-70251428D02*
X101664819Y-70060952D01*
X101664819Y-70060952D02*
X101617200Y-69965714D01*
X101617200Y-69965714D02*
X101569580Y-69918095D01*
X101569580Y-69918095D02*
X101474342Y-69870476D01*
X101474342Y-69870476D02*
X100664819Y-69870476D01*
X100664819Y-68918095D02*
X100664819Y-69394285D01*
X100664819Y-69394285D02*
X101141009Y-69441904D01*
X101141009Y-69441904D02*
X101093390Y-69394285D01*
X101093390Y-69394285D02*
X101045771Y-69299047D01*
X101045771Y-69299047D02*
X101045771Y-69060952D01*
X101045771Y-69060952D02*
X101093390Y-68965714D01*
X101093390Y-68965714D02*
X101141009Y-68918095D01*
X101141009Y-68918095D02*
X101236247Y-68870476D01*
X101236247Y-68870476D02*
X101474342Y-68870476D01*
X101474342Y-68870476D02*
X101569580Y-68918095D01*
X101569580Y-68918095D02*
X101617200Y-68965714D01*
X101617200Y-68965714D02*
X101664819Y-69060952D01*
X101664819Y-69060952D02*
X101664819Y-69299047D01*
X101664819Y-69299047D02*
X101617200Y-69394285D01*
X101617200Y-69394285D02*
X101569580Y-69441904D01*
X179534642Y-114544819D02*
X179201309Y-114068628D01*
X178963214Y-114544819D02*
X178963214Y-113544819D01*
X178963214Y-113544819D02*
X179344166Y-113544819D01*
X179344166Y-113544819D02*
X179439404Y-113592438D01*
X179439404Y-113592438D02*
X179487023Y-113640057D01*
X179487023Y-113640057D02*
X179534642Y-113735295D01*
X179534642Y-113735295D02*
X179534642Y-113878152D01*
X179534642Y-113878152D02*
X179487023Y-113973390D01*
X179487023Y-113973390D02*
X179439404Y-114021009D01*
X179439404Y-114021009D02*
X179344166Y-114068628D01*
X179344166Y-114068628D02*
X178963214Y-114068628D01*
X179915595Y-113640057D02*
X179963214Y-113592438D01*
X179963214Y-113592438D02*
X180058452Y-113544819D01*
X180058452Y-113544819D02*
X180296547Y-113544819D01*
X180296547Y-113544819D02*
X180391785Y-113592438D01*
X180391785Y-113592438D02*
X180439404Y-113640057D01*
X180439404Y-113640057D02*
X180487023Y-113735295D01*
X180487023Y-113735295D02*
X180487023Y-113830533D01*
X180487023Y-113830533D02*
X180439404Y-113973390D01*
X180439404Y-113973390D02*
X179867976Y-114544819D01*
X179867976Y-114544819D02*
X180487023Y-114544819D01*
X180820357Y-113544819D02*
X181439404Y-113544819D01*
X181439404Y-113544819D02*
X181106071Y-113925771D01*
X181106071Y-113925771D02*
X181248928Y-113925771D01*
X181248928Y-113925771D02*
X181344166Y-113973390D01*
X181344166Y-113973390D02*
X181391785Y-114021009D01*
X181391785Y-114021009D02*
X181439404Y-114116247D01*
X181439404Y-114116247D02*
X181439404Y-114354342D01*
X181439404Y-114354342D02*
X181391785Y-114449580D01*
X181391785Y-114449580D02*
X181344166Y-114497200D01*
X181344166Y-114497200D02*
X181248928Y-114544819D01*
X181248928Y-114544819D02*
X180963214Y-114544819D01*
X180963214Y-114544819D02*
X180867976Y-114497200D01*
X180867976Y-114497200D02*
X180820357Y-114449580D01*
X168691905Y-81494819D02*
X168691905Y-82304342D01*
X168691905Y-82304342D02*
X168739524Y-82399580D01*
X168739524Y-82399580D02*
X168787143Y-82447200D01*
X168787143Y-82447200D02*
X168882381Y-82494819D01*
X168882381Y-82494819D02*
X169072857Y-82494819D01*
X169072857Y-82494819D02*
X169168095Y-82447200D01*
X169168095Y-82447200D02*
X169215714Y-82399580D01*
X169215714Y-82399580D02*
X169263333Y-82304342D01*
X169263333Y-82304342D02*
X169263333Y-81494819D01*
X170263333Y-82494819D02*
X169691905Y-82494819D01*
X169977619Y-82494819D02*
X169977619Y-81494819D01*
X169977619Y-81494819D02*
X169882381Y-81637676D01*
X169882381Y-81637676D02*
X169787143Y-81732914D01*
X169787143Y-81732914D02*
X169691905Y-81780533D01*
X171215714Y-82494819D02*
X170644286Y-82494819D01*
X170930000Y-82494819D02*
X170930000Y-81494819D01*
X170930000Y-81494819D02*
X170834762Y-81637676D01*
X170834762Y-81637676D02*
X170739524Y-81732914D01*
X170739524Y-81732914D02*
X170644286Y-81780533D01*
X148144819Y-74150357D02*
X147668628Y-74483690D01*
X148144819Y-74721785D02*
X147144819Y-74721785D01*
X147144819Y-74721785D02*
X147144819Y-74340833D01*
X147144819Y-74340833D02*
X147192438Y-74245595D01*
X147192438Y-74245595D02*
X147240057Y-74197976D01*
X147240057Y-74197976D02*
X147335295Y-74150357D01*
X147335295Y-74150357D02*
X147478152Y-74150357D01*
X147478152Y-74150357D02*
X147573390Y-74197976D01*
X147573390Y-74197976D02*
X147621009Y-74245595D01*
X147621009Y-74245595D02*
X147668628Y-74340833D01*
X147668628Y-74340833D02*
X147668628Y-74721785D01*
X148144819Y-73197976D02*
X148144819Y-73769404D01*
X148144819Y-73483690D02*
X147144819Y-73483690D01*
X147144819Y-73483690D02*
X147287676Y-73578928D01*
X147287676Y-73578928D02*
X147382914Y-73674166D01*
X147382914Y-73674166D02*
X147430533Y-73769404D01*
X147144819Y-72864642D02*
X147144819Y-72197976D01*
X147144819Y-72197976D02*
X148144819Y-72626547D01*
X189614819Y-118908094D02*
X190424342Y-118908094D01*
X190424342Y-118908094D02*
X190519580Y-118860475D01*
X190519580Y-118860475D02*
X190567200Y-118812856D01*
X190567200Y-118812856D02*
X190614819Y-118717618D01*
X190614819Y-118717618D02*
X190614819Y-118527142D01*
X190614819Y-118527142D02*
X190567200Y-118431904D01*
X190567200Y-118431904D02*
X190519580Y-118384285D01*
X190519580Y-118384285D02*
X190424342Y-118336666D01*
X190424342Y-118336666D02*
X189614819Y-118336666D01*
X190614819Y-117336666D02*
X190614819Y-117908094D01*
X190614819Y-117622380D02*
X189614819Y-117622380D01*
X189614819Y-117622380D02*
X189757676Y-117717618D01*
X189757676Y-117717618D02*
X189852914Y-117812856D01*
X189852914Y-117812856D02*
X189900533Y-117908094D01*
X189710057Y-116955713D02*
X189662438Y-116908094D01*
X189662438Y-116908094D02*
X189614819Y-116812856D01*
X189614819Y-116812856D02*
X189614819Y-116574761D01*
X189614819Y-116574761D02*
X189662438Y-116479523D01*
X189662438Y-116479523D02*
X189710057Y-116431904D01*
X189710057Y-116431904D02*
X189805295Y-116384285D01*
X189805295Y-116384285D02*
X189900533Y-116384285D01*
X189900533Y-116384285D02*
X190043390Y-116431904D01*
X190043390Y-116431904D02*
X190614819Y-117003332D01*
X190614819Y-117003332D02*
X190614819Y-116384285D01*
X158094819Y-78832857D02*
X157618628Y-79166190D01*
X158094819Y-79404285D02*
X157094819Y-79404285D01*
X157094819Y-79404285D02*
X157094819Y-79023333D01*
X157094819Y-79023333D02*
X157142438Y-78928095D01*
X157142438Y-78928095D02*
X157190057Y-78880476D01*
X157190057Y-78880476D02*
X157285295Y-78832857D01*
X157285295Y-78832857D02*
X157428152Y-78832857D01*
X157428152Y-78832857D02*
X157523390Y-78880476D01*
X157523390Y-78880476D02*
X157571009Y-78928095D01*
X157571009Y-78928095D02*
X157618628Y-79023333D01*
X157618628Y-79023333D02*
X157618628Y-79404285D01*
X158094819Y-77880476D02*
X158094819Y-78451904D01*
X158094819Y-78166190D02*
X157094819Y-78166190D01*
X157094819Y-78166190D02*
X157237676Y-78261428D01*
X157237676Y-78261428D02*
X157332914Y-78356666D01*
X157332914Y-78356666D02*
X157380533Y-78451904D01*
X158094819Y-77404285D02*
X158094819Y-77213809D01*
X158094819Y-77213809D02*
X158047200Y-77118571D01*
X158047200Y-77118571D02*
X157999580Y-77070952D01*
X157999580Y-77070952D02*
X157856723Y-76975714D01*
X157856723Y-76975714D02*
X157666247Y-76928095D01*
X157666247Y-76928095D02*
X157285295Y-76928095D01*
X157285295Y-76928095D02*
X157190057Y-76975714D01*
X157190057Y-76975714D02*
X157142438Y-77023333D01*
X157142438Y-77023333D02*
X157094819Y-77118571D01*
X157094819Y-77118571D02*
X157094819Y-77309047D01*
X157094819Y-77309047D02*
X157142438Y-77404285D01*
X157142438Y-77404285D02*
X157190057Y-77451904D01*
X157190057Y-77451904D02*
X157285295Y-77499523D01*
X157285295Y-77499523D02*
X157523390Y-77499523D01*
X157523390Y-77499523D02*
X157618628Y-77451904D01*
X157618628Y-77451904D02*
X157666247Y-77404285D01*
X157666247Y-77404285D02*
X157713866Y-77309047D01*
X157713866Y-77309047D02*
X157713866Y-77118571D01*
X157713866Y-77118571D02*
X157666247Y-77023333D01*
X157666247Y-77023333D02*
X157618628Y-76975714D01*
X157618628Y-76975714D02*
X157523390Y-76928095D01*
X140034819Y-66421904D02*
X140844342Y-66421904D01*
X140844342Y-66421904D02*
X140939580Y-66374285D01*
X140939580Y-66374285D02*
X140987200Y-66326666D01*
X140987200Y-66326666D02*
X141034819Y-66231428D01*
X141034819Y-66231428D02*
X141034819Y-66040952D01*
X141034819Y-66040952D02*
X140987200Y-65945714D01*
X140987200Y-65945714D02*
X140939580Y-65898095D01*
X140939580Y-65898095D02*
X140844342Y-65850476D01*
X140844342Y-65850476D02*
X140034819Y-65850476D01*
X141034819Y-65326666D02*
X141034819Y-65136190D01*
X141034819Y-65136190D02*
X140987200Y-65040952D01*
X140987200Y-65040952D02*
X140939580Y-64993333D01*
X140939580Y-64993333D02*
X140796723Y-64898095D01*
X140796723Y-64898095D02*
X140606247Y-64850476D01*
X140606247Y-64850476D02*
X140225295Y-64850476D01*
X140225295Y-64850476D02*
X140130057Y-64898095D01*
X140130057Y-64898095D02*
X140082438Y-64945714D01*
X140082438Y-64945714D02*
X140034819Y-65040952D01*
X140034819Y-65040952D02*
X140034819Y-65231428D01*
X140034819Y-65231428D02*
X140082438Y-65326666D01*
X140082438Y-65326666D02*
X140130057Y-65374285D01*
X140130057Y-65374285D02*
X140225295Y-65421904D01*
X140225295Y-65421904D02*
X140463390Y-65421904D01*
X140463390Y-65421904D02*
X140558628Y-65374285D01*
X140558628Y-65374285D02*
X140606247Y-65326666D01*
X140606247Y-65326666D02*
X140653866Y-65231428D01*
X140653866Y-65231428D02*
X140653866Y-65040952D01*
X140653866Y-65040952D02*
X140606247Y-64945714D01*
X140606247Y-64945714D02*
X140558628Y-64898095D01*
X140558628Y-64898095D02*
X140463390Y-64850476D01*
X80574819Y-88171904D02*
X81384342Y-88171904D01*
X81384342Y-88171904D02*
X81479580Y-88124285D01*
X81479580Y-88124285D02*
X81527200Y-88076666D01*
X81527200Y-88076666D02*
X81574819Y-87981428D01*
X81574819Y-87981428D02*
X81574819Y-87790952D01*
X81574819Y-87790952D02*
X81527200Y-87695714D01*
X81527200Y-87695714D02*
X81479580Y-87648095D01*
X81479580Y-87648095D02*
X81384342Y-87600476D01*
X81384342Y-87600476D02*
X80574819Y-87600476D01*
X81574819Y-86600476D02*
X81574819Y-87171904D01*
X81574819Y-86886190D02*
X80574819Y-86886190D01*
X80574819Y-86886190D02*
X80717676Y-86981428D01*
X80717676Y-86981428D02*
X80812914Y-87076666D01*
X80812914Y-87076666D02*
X80860533Y-87171904D01*
X90574819Y-78501904D02*
X91384342Y-78501904D01*
X91384342Y-78501904D02*
X91479580Y-78454285D01*
X91479580Y-78454285D02*
X91527200Y-78406666D01*
X91527200Y-78406666D02*
X91574819Y-78311428D01*
X91574819Y-78311428D02*
X91574819Y-78120952D01*
X91574819Y-78120952D02*
X91527200Y-78025714D01*
X91527200Y-78025714D02*
X91479580Y-77978095D01*
X91479580Y-77978095D02*
X91384342Y-77930476D01*
X91384342Y-77930476D02*
X90574819Y-77930476D01*
X90908152Y-77025714D02*
X91574819Y-77025714D01*
X90527200Y-77263809D02*
X91241485Y-77501904D01*
X91241485Y-77501904D02*
X91241485Y-76882857D01*
X138344819Y-73945357D02*
X137868628Y-74278690D01*
X138344819Y-74516785D02*
X137344819Y-74516785D01*
X137344819Y-74516785D02*
X137344819Y-74135833D01*
X137344819Y-74135833D02*
X137392438Y-74040595D01*
X137392438Y-74040595D02*
X137440057Y-73992976D01*
X137440057Y-73992976D02*
X137535295Y-73945357D01*
X137535295Y-73945357D02*
X137678152Y-73945357D01*
X137678152Y-73945357D02*
X137773390Y-73992976D01*
X137773390Y-73992976D02*
X137821009Y-74040595D01*
X137821009Y-74040595D02*
X137868628Y-74135833D01*
X137868628Y-74135833D02*
X137868628Y-74516785D01*
X138344819Y-72992976D02*
X138344819Y-73564404D01*
X138344819Y-73278690D02*
X137344819Y-73278690D01*
X137344819Y-73278690D02*
X137487676Y-73373928D01*
X137487676Y-73373928D02*
X137582914Y-73469166D01*
X137582914Y-73469166D02*
X137630533Y-73564404D01*
X137344819Y-72088214D02*
X137344819Y-72564404D01*
X137344819Y-72564404D02*
X137821009Y-72612023D01*
X137821009Y-72612023D02*
X137773390Y-72564404D01*
X137773390Y-72564404D02*
X137725771Y-72469166D01*
X137725771Y-72469166D02*
X137725771Y-72231071D01*
X137725771Y-72231071D02*
X137773390Y-72135833D01*
X137773390Y-72135833D02*
X137821009Y-72088214D01*
X137821009Y-72088214D02*
X137916247Y-72040595D01*
X137916247Y-72040595D02*
X138154342Y-72040595D01*
X138154342Y-72040595D02*
X138249580Y-72088214D01*
X138249580Y-72088214D02*
X138297200Y-72135833D01*
X138297200Y-72135833D02*
X138344819Y-72231071D01*
X138344819Y-72231071D02*
X138344819Y-72469166D01*
X138344819Y-72469166D02*
X138297200Y-72564404D01*
X138297200Y-72564404D02*
X138249580Y-72612023D01*
X130394819Y-66381904D02*
X131204342Y-66381904D01*
X131204342Y-66381904D02*
X131299580Y-66334285D01*
X131299580Y-66334285D02*
X131347200Y-66286666D01*
X131347200Y-66286666D02*
X131394819Y-66191428D01*
X131394819Y-66191428D02*
X131394819Y-66000952D01*
X131394819Y-66000952D02*
X131347200Y-65905714D01*
X131347200Y-65905714D02*
X131299580Y-65858095D01*
X131299580Y-65858095D02*
X131204342Y-65810476D01*
X131204342Y-65810476D02*
X130394819Y-65810476D01*
X130823390Y-65191428D02*
X130775771Y-65286666D01*
X130775771Y-65286666D02*
X130728152Y-65334285D01*
X130728152Y-65334285D02*
X130632914Y-65381904D01*
X130632914Y-65381904D02*
X130585295Y-65381904D01*
X130585295Y-65381904D02*
X130490057Y-65334285D01*
X130490057Y-65334285D02*
X130442438Y-65286666D01*
X130442438Y-65286666D02*
X130394819Y-65191428D01*
X130394819Y-65191428D02*
X130394819Y-65000952D01*
X130394819Y-65000952D02*
X130442438Y-64905714D01*
X130442438Y-64905714D02*
X130490057Y-64858095D01*
X130490057Y-64858095D02*
X130585295Y-64810476D01*
X130585295Y-64810476D02*
X130632914Y-64810476D01*
X130632914Y-64810476D02*
X130728152Y-64858095D01*
X130728152Y-64858095D02*
X130775771Y-64905714D01*
X130775771Y-64905714D02*
X130823390Y-65000952D01*
X130823390Y-65000952D02*
X130823390Y-65191428D01*
X130823390Y-65191428D02*
X130871009Y-65286666D01*
X130871009Y-65286666D02*
X130918628Y-65334285D01*
X130918628Y-65334285D02*
X131013866Y-65381904D01*
X131013866Y-65381904D02*
X131204342Y-65381904D01*
X131204342Y-65381904D02*
X131299580Y-65334285D01*
X131299580Y-65334285D02*
X131347200Y-65286666D01*
X131347200Y-65286666D02*
X131394819Y-65191428D01*
X131394819Y-65191428D02*
X131394819Y-65000952D01*
X131394819Y-65000952D02*
X131347200Y-64905714D01*
X131347200Y-64905714D02*
X131299580Y-64858095D01*
X131299580Y-64858095D02*
X131204342Y-64810476D01*
X131204342Y-64810476D02*
X131013866Y-64810476D01*
X131013866Y-64810476D02*
X130918628Y-64858095D01*
X130918628Y-64858095D02*
X130871009Y-64905714D01*
X130871009Y-64905714D02*
X130823390Y-65000952D01*
X75024819Y-102391904D02*
X75834342Y-102391904D01*
X75834342Y-102391904D02*
X75929580Y-102344285D01*
X75929580Y-102344285D02*
X75977200Y-102296666D01*
X75977200Y-102296666D02*
X76024819Y-102201428D01*
X76024819Y-102201428D02*
X76024819Y-102010952D01*
X76024819Y-102010952D02*
X75977200Y-101915714D01*
X75977200Y-101915714D02*
X75929580Y-101868095D01*
X75929580Y-101868095D02*
X75834342Y-101820476D01*
X75834342Y-101820476D02*
X75024819Y-101820476D01*
X75120057Y-101391904D02*
X75072438Y-101344285D01*
X75072438Y-101344285D02*
X75024819Y-101249047D01*
X75024819Y-101249047D02*
X75024819Y-101010952D01*
X75024819Y-101010952D02*
X75072438Y-100915714D01*
X75072438Y-100915714D02*
X75120057Y-100868095D01*
X75120057Y-100868095D02*
X75215295Y-100820476D01*
X75215295Y-100820476D02*
X75310533Y-100820476D01*
X75310533Y-100820476D02*
X75453390Y-100868095D01*
X75453390Y-100868095D02*
X76024819Y-101439523D01*
X76024819Y-101439523D02*
X76024819Y-100820476D01*
X173167142Y-103454819D02*
X172833809Y-102978628D01*
X172595714Y-103454819D02*
X172595714Y-102454819D01*
X172595714Y-102454819D02*
X172976666Y-102454819D01*
X172976666Y-102454819D02*
X173071904Y-102502438D01*
X173071904Y-102502438D02*
X173119523Y-102550057D01*
X173119523Y-102550057D02*
X173167142Y-102645295D01*
X173167142Y-102645295D02*
X173167142Y-102788152D01*
X173167142Y-102788152D02*
X173119523Y-102883390D01*
X173119523Y-102883390D02*
X173071904Y-102931009D01*
X173071904Y-102931009D02*
X172976666Y-102978628D01*
X172976666Y-102978628D02*
X172595714Y-102978628D01*
X173548095Y-102550057D02*
X173595714Y-102502438D01*
X173595714Y-102502438D02*
X173690952Y-102454819D01*
X173690952Y-102454819D02*
X173929047Y-102454819D01*
X173929047Y-102454819D02*
X174024285Y-102502438D01*
X174024285Y-102502438D02*
X174071904Y-102550057D01*
X174071904Y-102550057D02*
X174119523Y-102645295D01*
X174119523Y-102645295D02*
X174119523Y-102740533D01*
X174119523Y-102740533D02*
X174071904Y-102883390D01*
X174071904Y-102883390D02*
X173500476Y-103454819D01*
X173500476Y-103454819D02*
X174119523Y-103454819D01*
X174976666Y-102454819D02*
X174786190Y-102454819D01*
X174786190Y-102454819D02*
X174690952Y-102502438D01*
X174690952Y-102502438D02*
X174643333Y-102550057D01*
X174643333Y-102550057D02*
X174548095Y-102692914D01*
X174548095Y-102692914D02*
X174500476Y-102883390D01*
X174500476Y-102883390D02*
X174500476Y-103264342D01*
X174500476Y-103264342D02*
X174548095Y-103359580D01*
X174548095Y-103359580D02*
X174595714Y-103407200D01*
X174595714Y-103407200D02*
X174690952Y-103454819D01*
X174690952Y-103454819D02*
X174881428Y-103454819D01*
X174881428Y-103454819D02*
X174976666Y-103407200D01*
X174976666Y-103407200D02*
X175024285Y-103359580D01*
X175024285Y-103359580D02*
X175071904Y-103264342D01*
X175071904Y-103264342D02*
X175071904Y-103026247D01*
X175071904Y-103026247D02*
X175024285Y-102931009D01*
X175024285Y-102931009D02*
X174976666Y-102883390D01*
X174976666Y-102883390D02*
X174881428Y-102835771D01*
X174881428Y-102835771D02*
X174690952Y-102835771D01*
X174690952Y-102835771D02*
X174595714Y-102883390D01*
X174595714Y-102883390D02*
X174548095Y-102931009D01*
X174548095Y-102931009D02*
X174500476Y-103026247D01*
X157883333Y-91579580D02*
X157835714Y-91627200D01*
X157835714Y-91627200D02*
X157692857Y-91674819D01*
X157692857Y-91674819D02*
X157597619Y-91674819D01*
X157597619Y-91674819D02*
X157454762Y-91627200D01*
X157454762Y-91627200D02*
X157359524Y-91531961D01*
X157359524Y-91531961D02*
X157311905Y-91436723D01*
X157311905Y-91436723D02*
X157264286Y-91246247D01*
X157264286Y-91246247D02*
X157264286Y-91103390D01*
X157264286Y-91103390D02*
X157311905Y-90912914D01*
X157311905Y-90912914D02*
X157359524Y-90817676D01*
X157359524Y-90817676D02*
X157454762Y-90722438D01*
X157454762Y-90722438D02*
X157597619Y-90674819D01*
X157597619Y-90674819D02*
X157692857Y-90674819D01*
X157692857Y-90674819D02*
X157835714Y-90722438D01*
X157835714Y-90722438D02*
X157883333Y-90770057D01*
X158835714Y-91674819D02*
X158264286Y-91674819D01*
X158550000Y-91674819D02*
X158550000Y-90674819D01*
X158550000Y-90674819D02*
X158454762Y-90817676D01*
X158454762Y-90817676D02*
X158359524Y-90912914D01*
X158359524Y-90912914D02*
X158264286Y-90960533D01*
X105716191Y-89964819D02*
X106049524Y-90964819D01*
X106049524Y-90964819D02*
X106382857Y-89964819D01*
X106716191Y-90964819D02*
X106716191Y-90298152D01*
X106716191Y-89964819D02*
X106668572Y-90012438D01*
X106668572Y-90012438D02*
X106716191Y-90060057D01*
X106716191Y-90060057D02*
X106763810Y-90012438D01*
X106763810Y-90012438D02*
X106716191Y-89964819D01*
X106716191Y-89964819D02*
X106716191Y-90060057D01*
X107192381Y-90298152D02*
X107192381Y-90964819D01*
X107192381Y-90393390D02*
X107240000Y-90345771D01*
X107240000Y-90345771D02*
X107335238Y-90298152D01*
X107335238Y-90298152D02*
X107478095Y-90298152D01*
X107478095Y-90298152D02*
X107573333Y-90345771D01*
X107573333Y-90345771D02*
X107620952Y-90441009D01*
X107620952Y-90441009D02*
X107620952Y-90964819D01*
X105978095Y-85132438D02*
X105882857Y-85084819D01*
X105882857Y-85084819D02*
X105740000Y-85084819D01*
X105740000Y-85084819D02*
X105597143Y-85132438D01*
X105597143Y-85132438D02*
X105501905Y-85227676D01*
X105501905Y-85227676D02*
X105454286Y-85322914D01*
X105454286Y-85322914D02*
X105406667Y-85513390D01*
X105406667Y-85513390D02*
X105406667Y-85656247D01*
X105406667Y-85656247D02*
X105454286Y-85846723D01*
X105454286Y-85846723D02*
X105501905Y-85941961D01*
X105501905Y-85941961D02*
X105597143Y-86037200D01*
X105597143Y-86037200D02*
X105740000Y-86084819D01*
X105740000Y-86084819D02*
X105835238Y-86084819D01*
X105835238Y-86084819D02*
X105978095Y-86037200D01*
X105978095Y-86037200D02*
X106025714Y-85989580D01*
X106025714Y-85989580D02*
X106025714Y-85656247D01*
X106025714Y-85656247D02*
X105835238Y-85656247D01*
X106454286Y-86084819D02*
X106454286Y-85084819D01*
X106454286Y-85084819D02*
X107025714Y-86084819D01*
X107025714Y-86084819D02*
X107025714Y-85084819D01*
X107501905Y-86084819D02*
X107501905Y-85084819D01*
X107501905Y-85084819D02*
X107740000Y-85084819D01*
X107740000Y-85084819D02*
X107882857Y-85132438D01*
X107882857Y-85132438D02*
X107978095Y-85227676D01*
X107978095Y-85227676D02*
X108025714Y-85322914D01*
X108025714Y-85322914D02*
X108073333Y-85513390D01*
X108073333Y-85513390D02*
X108073333Y-85656247D01*
X108073333Y-85656247D02*
X108025714Y-85846723D01*
X108025714Y-85846723D02*
X107978095Y-85941961D01*
X107978095Y-85941961D02*
X107882857Y-86037200D01*
X107882857Y-86037200D02*
X107740000Y-86084819D01*
X107740000Y-86084819D02*
X107501905Y-86084819D01*
D12*
%TO.C,R27*%
X169122936Y-88745000D02*
X169577064Y-88745000D01*
X169122936Y-90215000D02*
X169577064Y-90215000D01*
%TO.C,R12*%
X112475000Y-73012936D02*
X112475000Y-73467064D01*
X113945000Y-73012936D02*
X113945000Y-73467064D01*
%TO.C,R9*%
X105485000Y-77312936D02*
X105485000Y-77767064D01*
X106955000Y-77312936D02*
X106955000Y-77767064D01*
D10*
%TO.C,U10*%
X151200000Y-75920000D02*
X151200000Y-73920000D01*
X151200000Y-75920000D02*
X153200000Y-75920000D01*
D12*
X151400000Y-69510000D02*
X151400000Y-67015000D01*
X151400000Y-75720000D02*
X151400000Y-71510000D01*
X151400000Y-75720000D02*
X157420000Y-75720000D01*
X153114500Y-65300000D02*
X151400000Y-67015000D01*
X155700000Y-65300000D02*
X153114500Y-65300000D01*
X155700000Y-65300000D02*
X157420000Y-67020000D01*
X157420000Y-69510000D02*
X157420000Y-67020000D01*
X157420000Y-75720000D02*
X157420000Y-71510000D01*
%TO.C,R6*%
X78772936Y-117275000D02*
X79227064Y-117275000D01*
X78772936Y-118745000D02*
X79227064Y-118745000D01*
%TO.C,R16*%
X132675000Y-73075436D02*
X132675000Y-73529564D01*
X134145000Y-73075436D02*
X134145000Y-73529564D01*
%TO.C,R25*%
X173332936Y-99035000D02*
X173787064Y-99035000D01*
X173332936Y-100505000D02*
X173787064Y-100505000D01*
%TO.C,R18*%
X142095000Y-72932936D02*
X142095000Y-73387064D01*
X143565000Y-72932936D02*
X143565000Y-73387064D01*
%TO.C,R21*%
X165935000Y-84820436D02*
X165935000Y-85274564D01*
X167405000Y-84820436D02*
X167405000Y-85274564D01*
%TO.C,R3*%
X86032936Y-100375000D02*
X86487064Y-100375000D01*
X86032936Y-101845000D02*
X86487064Y-101845000D01*
%TO.C,R5*%
X78772936Y-114325000D02*
X79227064Y-114325000D01*
X78772936Y-115795000D02*
X79227064Y-115795000D01*
D10*
%TO.C,U14*%
X171820000Y-93490000D02*
X171820000Y-91490000D01*
X171820000Y-93490000D02*
X173820000Y-93490000D01*
D12*
X172020000Y-87080000D02*
X172020000Y-84585000D01*
X172020000Y-93290000D02*
X172020000Y-89080000D01*
X172020000Y-93290000D02*
X178040000Y-93290000D01*
X173734500Y-82870000D02*
X172020000Y-84585000D01*
X176320000Y-82870000D02*
X173734500Y-82870000D01*
X176320000Y-82870000D02*
X178040000Y-84590000D01*
X178040000Y-87080000D02*
X178040000Y-84590000D01*
X178040000Y-93290000D02*
X178040000Y-89080000D01*
%TO.C,R11*%
X115425000Y-73012936D02*
X115425000Y-73467064D01*
X116895000Y-73012936D02*
X116895000Y-73467064D01*
%TO.C,R1*%
X90332936Y-88665000D02*
X90787064Y-88665000D01*
X90332936Y-90135000D02*
X90787064Y-90135000D01*
%TO.C,J1*%
X110310000Y-81140000D02*
X111640000Y-81140000D01*
X110310000Y-82250000D02*
X110310000Y-81140000D01*
X110310000Y-83710000D02*
X151070000Y-83710000D01*
X110310000Y-92340000D02*
X110310000Y-83710000D01*
X110310000Y-92340000D02*
X151070000Y-92340000D01*
X110430000Y-92340000D02*
X110430000Y-83710000D01*
X110548095Y-92340000D02*
X110548095Y-83710000D01*
X110666190Y-92340000D02*
X110666190Y-83710000D01*
X110784285Y-92340000D02*
X110784285Y-83710000D01*
X110902380Y-92340000D02*
X110902380Y-83710000D01*
X111020475Y-92340000D02*
X111020475Y-83710000D01*
X111138570Y-92340000D02*
X111138570Y-83710000D01*
X111256665Y-92340000D02*
X111256665Y-83710000D01*
X111280000Y-83710000D02*
X111280000Y-83360000D01*
X111374760Y-92340000D02*
X111374760Y-83710000D01*
X111492855Y-92340000D02*
X111492855Y-83710000D01*
X111610950Y-92340000D02*
X111610950Y-83710000D01*
X111729045Y-92340000D02*
X111729045Y-83710000D01*
X111847140Y-92340000D02*
X111847140Y-83710000D01*
X111965235Y-92340000D02*
X111965235Y-83710000D01*
X112000000Y-83710000D02*
X112000000Y-83360000D01*
X112083330Y-92340000D02*
X112083330Y-83710000D01*
X112201425Y-92340000D02*
X112201425Y-83710000D01*
X112319520Y-92340000D02*
X112319520Y-83710000D01*
X112437615Y-92340000D02*
X112437615Y-83710000D01*
X112555710Y-92340000D02*
X112555710Y-83710000D01*
X112673805Y-92340000D02*
X112673805Y-83710000D01*
X112791900Y-92340000D02*
X112791900Y-83710000D01*
X112910000Y-92340000D02*
X112910000Y-83710000D01*
X113820000Y-83710000D02*
X113820000Y-83300000D01*
X114540000Y-83710000D02*
X114540000Y-83300000D01*
X115450000Y-92340000D02*
X115450000Y-83710000D01*
X116360000Y-83710000D02*
X116360000Y-83300000D01*
X117080000Y-83710000D02*
X117080000Y-83300000D01*
X117990000Y-92340000D02*
X117990000Y-83710000D01*
X118900000Y-83710000D02*
X118900000Y-83300000D01*
X119620000Y-83710000D02*
X119620000Y-83300000D01*
X120530000Y-92340000D02*
X120530000Y-83710000D01*
X121440000Y-83710000D02*
X121440000Y-83300000D01*
X122160000Y-83710000D02*
X122160000Y-83300000D01*
X123070000Y-92340000D02*
X123070000Y-83710000D01*
X123980000Y-83710000D02*
X123980000Y-83300000D01*
X124700000Y-83710000D02*
X124700000Y-83300000D01*
X125610000Y-92340000D02*
X125610000Y-83710000D01*
X126520000Y-83710000D02*
X126520000Y-83300000D01*
X127240000Y-83710000D02*
X127240000Y-83300000D01*
X128150000Y-92340000D02*
X128150000Y-83710000D01*
X129060000Y-83710000D02*
X129060000Y-83300000D01*
X129780000Y-83710000D02*
X129780000Y-83300000D01*
X130690000Y-92340000D02*
X130690000Y-83710000D01*
X131600000Y-83710000D02*
X131600000Y-83300000D01*
X132320000Y-83710000D02*
X132320000Y-83300000D01*
X133230000Y-92340000D02*
X133230000Y-83710000D01*
X134140000Y-83710000D02*
X134140000Y-83300000D01*
X134860000Y-83710000D02*
X134860000Y-83300000D01*
X135770000Y-92340000D02*
X135770000Y-83710000D01*
X136680000Y-83710000D02*
X136680000Y-83300000D01*
X137400000Y-83710000D02*
X137400000Y-83300000D01*
X138310000Y-92340000D02*
X138310000Y-83710000D01*
X139220000Y-83710000D02*
X139220000Y-83300000D01*
X139940000Y-83710000D02*
X139940000Y-83300000D01*
X140850000Y-92340000D02*
X140850000Y-83710000D01*
X141760000Y-83710000D02*
X141760000Y-83300000D01*
X142480000Y-83710000D02*
X142480000Y-83300000D01*
X143390000Y-92340000D02*
X143390000Y-83710000D01*
X144300000Y-83710000D02*
X144300000Y-83300000D01*
X145020000Y-83710000D02*
X145020000Y-83300000D01*
X145930000Y-92340000D02*
X145930000Y-83710000D01*
X146840000Y-83710000D02*
X146840000Y-83300000D01*
X147560000Y-83710000D02*
X147560000Y-83300000D01*
X148470000Y-92340000D02*
X148470000Y-83710000D01*
X149380000Y-83710000D02*
X149380000Y-83300000D01*
X150100000Y-83710000D02*
X150100000Y-83300000D01*
X151070000Y-92340000D02*
X151070000Y-83710000D01*
D10*
%TO.C,U7*%
X121820000Y-71130000D02*
X121820000Y-69130000D01*
X121820000Y-71130000D02*
X123820000Y-71130000D01*
D12*
X122020000Y-64720000D02*
X122020000Y-62225000D01*
X122020000Y-70930000D02*
X122020000Y-66720000D01*
X122020000Y-70930000D02*
X128040000Y-70930000D01*
X123734500Y-60510000D02*
X122020000Y-62225000D01*
X126320000Y-60510000D02*
X123734500Y-60510000D01*
X126320000Y-60510000D02*
X128040000Y-62230000D01*
X128040000Y-64720000D02*
X128040000Y-62230000D01*
X128040000Y-70930000D02*
X128040000Y-66720000D01*
D10*
%TO.C,U13*%
X176970000Y-107390000D02*
X176970000Y-105390000D01*
X176970000Y-107390000D02*
X178970000Y-107390000D01*
D12*
X177170000Y-100980000D02*
X177170000Y-98485000D01*
X177170000Y-107190000D02*
X177170000Y-102980000D01*
X177170000Y-107190000D02*
X183190000Y-107190000D01*
X178884500Y-96770000D02*
X177170000Y-98485000D01*
X181470000Y-96770000D02*
X178884500Y-96770000D01*
X181470000Y-96770000D02*
X183190000Y-98490000D01*
X183190000Y-100980000D02*
X183190000Y-98490000D01*
X183190000Y-107190000D02*
X183190000Y-102980000D01*
%TO.C,R13*%
X125365000Y-73292936D02*
X125365000Y-73747064D01*
X126835000Y-73292936D02*
X126835000Y-73747064D01*
%TO.C,R7*%
X95625000Y-84982936D02*
X95625000Y-85437064D01*
X97095000Y-84982936D02*
X97095000Y-85437064D01*
D10*
%TO.C,U5*%
X101800000Y-75090000D02*
X101800000Y-73090000D01*
X101800000Y-75090000D02*
X103800000Y-75090000D01*
D12*
X102000000Y-68680000D02*
X102000000Y-66185000D01*
X102000000Y-74890000D02*
X102000000Y-70680000D01*
X102000000Y-74890000D02*
X108020000Y-74890000D01*
X103714500Y-64470000D02*
X102000000Y-66185000D01*
X106300000Y-64470000D02*
X103714500Y-64470000D01*
X106300000Y-64470000D02*
X108020000Y-66190000D01*
X108020000Y-68680000D02*
X108020000Y-66190000D01*
X108020000Y-74890000D02*
X108020000Y-70680000D01*
%TO.C,R23*%
X179730436Y-114785000D02*
X180184564Y-114785000D01*
X179730436Y-116255000D02*
X180184564Y-116255000D01*
%TO.C,R28*%
X169122936Y-91695000D02*
X169577064Y-91695000D01*
X169122936Y-93165000D02*
X169577064Y-93165000D01*
D10*
%TO.C,U11*%
X161780000Y-83130000D02*
X161780000Y-81130000D01*
X161780000Y-83130000D02*
X163780000Y-83130000D01*
D12*
X161980000Y-76720000D02*
X161980000Y-74225000D01*
X161980000Y-82930000D02*
X161980000Y-78720000D01*
X161980000Y-82930000D02*
X168000000Y-82930000D01*
X163694500Y-72510000D02*
X161980000Y-74225000D01*
X166280000Y-72510000D02*
X163694500Y-72510000D01*
X166280000Y-72510000D02*
X168000000Y-74230000D01*
X168000000Y-76720000D02*
X168000000Y-74230000D01*
X168000000Y-82930000D02*
X168000000Y-78720000D01*
%TO.C,R17*%
X145045000Y-72932936D02*
X145045000Y-73387064D01*
X146515000Y-72932936D02*
X146515000Y-73387064D01*
%TO.C,R4*%
X86032936Y-103325000D02*
X86487064Y-103325000D01*
X86032936Y-104795000D02*
X86487064Y-104795000D01*
D10*
%TO.C,U12*%
X182820000Y-120870000D02*
X182820000Y-118870000D01*
X182820000Y-120870000D02*
X184820000Y-120870000D01*
D12*
X183020000Y-114460000D02*
X183020000Y-111965000D01*
X183020000Y-120670000D02*
X183020000Y-116460000D01*
X183020000Y-120670000D02*
X189040000Y-120670000D01*
X184734500Y-110250000D02*
X183020000Y-111965000D01*
X187320000Y-110250000D02*
X184734500Y-110250000D01*
X187320000Y-110250000D02*
X189040000Y-111970000D01*
X189040000Y-114460000D02*
X189040000Y-111970000D01*
X189040000Y-120670000D02*
X189040000Y-116460000D01*
%TO.C,R22*%
X162985000Y-84820436D02*
X162985000Y-85274564D01*
X164455000Y-84820436D02*
X164455000Y-85274564D01*
%TO.C,R19*%
X154985000Y-78082936D02*
X154985000Y-78537064D01*
X156455000Y-78082936D02*
X156455000Y-78537064D01*
%TO.C,R24*%
X179730436Y-117735000D02*
X180184564Y-117735000D01*
X179730436Y-119205000D02*
X180184564Y-119205000D01*
D10*
%TO.C,U9*%
X141170000Y-71070000D02*
X141170000Y-69070000D01*
X141170000Y-71070000D02*
X143170000Y-71070000D01*
D12*
X141370000Y-64660000D02*
X141370000Y-62165000D01*
X141370000Y-70870000D02*
X141370000Y-66660000D01*
X141370000Y-70870000D02*
X147390000Y-70870000D01*
X143084500Y-60450000D02*
X141370000Y-62165000D01*
X145670000Y-60450000D02*
X143084500Y-60450000D01*
X145670000Y-60450000D02*
X147390000Y-62170000D01*
X147390000Y-64660000D02*
X147390000Y-62170000D01*
X147390000Y-70870000D02*
X147390000Y-66660000D01*
%TO.C,R10*%
X102535000Y-77312936D02*
X102535000Y-77767064D01*
X104005000Y-77312936D02*
X104005000Y-77767064D01*
D10*
%TO.C,U1*%
X81710000Y-92820000D02*
X81710000Y-90820000D01*
X81710000Y-92820000D02*
X83710000Y-92820000D01*
D12*
X81910000Y-86410000D02*
X81910000Y-83915000D01*
X81910000Y-92620000D02*
X81910000Y-88410000D01*
X81910000Y-92620000D02*
X87930000Y-92620000D01*
X83624500Y-82200000D02*
X81910000Y-83915000D01*
X86210000Y-82200000D02*
X83624500Y-82200000D01*
X86210000Y-82200000D02*
X87930000Y-83920000D01*
X87930000Y-86410000D02*
X87930000Y-83920000D01*
X87930000Y-92620000D02*
X87930000Y-88410000D01*
%TO.C,R8*%
X92675000Y-84982936D02*
X92675000Y-85437064D01*
X94145000Y-84982936D02*
X94145000Y-85437064D01*
D10*
%TO.C,U4*%
X91710000Y-83150000D02*
X91710000Y-81150000D01*
X91710000Y-83150000D02*
X93710000Y-83150000D01*
D12*
X91910000Y-76740000D02*
X91910000Y-74245000D01*
X91910000Y-82950000D02*
X91910000Y-78740000D01*
X91910000Y-82950000D02*
X97930000Y-82950000D01*
X93624500Y-72530000D02*
X91910000Y-74245000D01*
X96210000Y-72530000D02*
X93624500Y-72530000D01*
X96210000Y-72530000D02*
X97930000Y-74250000D01*
X97930000Y-76740000D02*
X97930000Y-74250000D01*
X97930000Y-82950000D02*
X97930000Y-78740000D01*
%TO.C,R14*%
X122415000Y-73292936D02*
X122415000Y-73747064D01*
X123885000Y-73292936D02*
X123885000Y-73747064D01*
%TO.C,R15*%
X135505000Y-73075436D02*
X135505000Y-73529564D01*
X136975000Y-73075436D02*
X136975000Y-73529564D01*
D10*
%TO.C,U8*%
X131530000Y-71030000D02*
X131530000Y-69030000D01*
X131530000Y-71030000D02*
X133530000Y-71030000D01*
D12*
X131730000Y-64620000D02*
X131730000Y-62125000D01*
X131730000Y-70830000D02*
X131730000Y-66620000D01*
X131730000Y-70830000D02*
X137750000Y-70830000D01*
X133444500Y-60410000D02*
X131730000Y-62125000D01*
X136030000Y-60410000D02*
X133444500Y-60410000D01*
X136030000Y-60410000D02*
X137750000Y-62130000D01*
X137750000Y-64620000D02*
X137750000Y-62130000D01*
X137750000Y-70830000D02*
X137750000Y-66620000D01*
D10*
%TO.C,U2*%
X76880000Y-107040000D02*
X76880000Y-105040000D01*
X76880000Y-107040000D02*
X78880000Y-107040000D01*
D12*
X77080000Y-100630000D02*
X77080000Y-98135000D01*
X77080000Y-106840000D02*
X77080000Y-102630000D01*
X77080000Y-106840000D02*
X83100000Y-106840000D01*
X78794500Y-96420000D02*
X77080000Y-98135000D01*
X81380000Y-96420000D02*
X78794500Y-96420000D01*
X81380000Y-96420000D02*
X83100000Y-98140000D01*
X83100000Y-100630000D02*
X83100000Y-98140000D01*
X83100000Y-106840000D02*
X83100000Y-102630000D01*
%TO.C,R26*%
X173582936Y-103915000D02*
X174037064Y-103915000D01*
X173582936Y-105385000D02*
X174037064Y-105385000D01*
D10*
%TO.C,U3*%
X70020000Y-120720000D02*
X70020000Y-118720000D01*
X70020000Y-120720000D02*
X72020000Y-120720000D01*
D12*
X70220000Y-114310000D02*
X70220000Y-111815000D01*
X70220000Y-120520000D02*
X70220000Y-116310000D01*
X70220000Y-120520000D02*
X76240000Y-120520000D01*
X71934500Y-110100000D02*
X70220000Y-111815000D01*
X74520000Y-110100000D02*
X71934500Y-110100000D01*
X74520000Y-110100000D02*
X76240000Y-111820000D01*
X76240000Y-114310000D02*
X76240000Y-111820000D01*
X76240000Y-120520000D02*
X76240000Y-116310000D01*
%TO.C,R2*%
X90332936Y-91615000D02*
X90787064Y-91615000D01*
X90332936Y-93085000D02*
X90787064Y-93085000D01*
%TO.C,C1*%
X155225000Y-90388748D02*
X155225000Y-90911252D01*
X156695000Y-90388748D02*
X156695000Y-90911252D01*
%TO.C,Vin*%
X104740000Y-87910000D02*
X104740000Y-89710000D01*
X104740000Y-87910000D02*
X109040000Y-87910000D01*
X109040000Y-89710000D02*
X104740000Y-89710000D01*
X109040000Y-89710000D02*
X109040000Y-87910000D01*
%TO.C,R20*%
X152035000Y-78082936D02*
X152035000Y-78537064D01*
X153505000Y-78082936D02*
X153505000Y-78537064D01*
%TO.C,GND*%
X104740000Y-83030000D02*
X104740000Y-84830000D01*
X104740000Y-83030000D02*
X109040000Y-83030000D01*
X109040000Y-84830000D02*
X104740000Y-84830000D01*
X109040000Y-84830000D02*
X109040000Y-83030000D01*
D10*
%TO.C,U6*%
X111600000Y-71010000D02*
X111600000Y-69010000D01*
X111600000Y-71010000D02*
X113600000Y-71010000D01*
D12*
X111800000Y-64600000D02*
X111800000Y-62105000D01*
X111800000Y-70810000D02*
X111800000Y-66600000D01*
X111800000Y-70810000D02*
X117820000Y-70810000D01*
X113514500Y-60390000D02*
X111800000Y-62105000D01*
X116100000Y-60390000D02*
X113514500Y-60390000D01*
X116100000Y-60390000D02*
X117820000Y-62110000D01*
X117820000Y-64600000D02*
X117820000Y-62110000D01*
X117820000Y-70810000D02*
X117820000Y-66600000D01*
%TD*%
M02*
