M48
; DRILL file {KiCad 9.0.5} date 2026-05-14T23:43:29+0530
; FORMAT={-:-/ absolute / metric / decimal}
; #@! TF.CreationDate,2026-05-14T23:43:29+05:30
; #@! TF.GenerationSoftware,Kicad,Pcbnew,9.0.5
; #@! TF.FileFunction,NonPlated,1,2,NPTH
FMAT,2
METRIC
; #@! TA.AperFunction,NonPlated,NPTH,ComponentDrill
T1C1.000
; #@! TA.AperFunction,NonPlated,NPTH,ComponentDrill
T2C2.500
%
G90
G05
T1
X75.68Y-119.96
X82.54Y-106.28
X87.37Y-92.06
X97.37Y-82.39
X107.46Y-74.33
X117.26Y-70.25
X127.48Y-70.37
X137.19Y-70.27
X146.83Y-70.31
X156.86Y-75.16
X167.44Y-82.37
X177.48Y-92.73
X182.63Y-106.63
X188.48Y-120.11
T2
X71.33Y-115.31
X75.13Y-115.31
X78.19Y-101.63
X81.99Y-101.63
X83.02Y-87.41
X86.82Y-87.41
X93.02Y-77.74
X96.82Y-77.74
X103.11Y-69.68
X106.91Y-69.68
X112.91Y-65.6
X116.71Y-65.6
X123.13Y-65.72
X126.93Y-65.72
X132.84Y-65.62
X136.64Y-65.62
X142.48Y-65.66
X146.28Y-65.66
X152.51Y-70.51
X156.31Y-70.51
X163.09Y-77.72
X166.89Y-77.72
X173.13Y-88.08
X176.93Y-88.08
X178.28Y-101.98
X182.08Y-101.98
X184.13Y-115.46
X187.93Y-115.46
M30
