%TF.GenerationSoftware,KiCad,Pcbnew,9.0.5*%
%TF.CreationDate,2026-05-14T23:43:19+05:30*%
%TF.ProjectId,14QRT_Custom_IR_Sensor_Improved,31345152-545f-4437-9573-746f6d5f4952,rev?*%
%TF.SameCoordinates,Original*%
%TF.FileFunction,AssemblyDrawing,Bot*%
%FSLAX46Y46*%
G04 Gerber Fmt 4.6, Leading zero omitted, Abs format (unit mm)*
G04 Created by KiCad (PCBNEW 9.0.5) date 2026-05-14 23:43:19*
%MOMM*%
%LPD*%
G01*
G04 APERTURE LIST*
%ADD10C,0.150000*%
G04 APERTURE END LIST*
D10*
X129425180Y-70071428D02*
X129425180Y-69500000D01*
X128425180Y-69785714D02*
X129425180Y-69785714D01*
X128520419Y-68595238D02*
X128472800Y-68642857D01*
X128472800Y-68642857D02*
X128425180Y-68785714D01*
X128425180Y-68785714D02*
X128425180Y-68880952D01*
X128425180Y-68880952D02*
X128472800Y-69023809D01*
X128472800Y-69023809D02*
X128568038Y-69119047D01*
X128568038Y-69119047D02*
X128663276Y-69166666D01*
X128663276Y-69166666D02*
X128853752Y-69214285D01*
X128853752Y-69214285D02*
X128996609Y-69214285D01*
X128996609Y-69214285D02*
X129187085Y-69166666D01*
X129187085Y-69166666D02*
X129282323Y-69119047D01*
X129282323Y-69119047D02*
X129377561Y-69023809D01*
X129377561Y-69023809D02*
X129425180Y-68880952D01*
X129425180Y-68880952D02*
X129425180Y-68785714D01*
X129425180Y-68785714D02*
X129377561Y-68642857D01*
X129377561Y-68642857D02*
X129329942Y-68595238D01*
X128425180Y-67595238D02*
X128901371Y-67928571D01*
X128425180Y-68166666D02*
X129425180Y-68166666D01*
X129425180Y-68166666D02*
X129425180Y-67785714D01*
X129425180Y-67785714D02*
X129377561Y-67690476D01*
X129377561Y-67690476D02*
X129329942Y-67642857D01*
X129329942Y-67642857D02*
X129234704Y-67595238D01*
X129234704Y-67595238D02*
X129091847Y-67595238D01*
X129091847Y-67595238D02*
X128996609Y-67642857D01*
X128996609Y-67642857D02*
X128948990Y-67690476D01*
X128948990Y-67690476D02*
X128901371Y-67785714D01*
X128901371Y-67785714D02*
X128901371Y-68166666D01*
X129425180Y-67309523D02*
X129425180Y-66738095D01*
X128425180Y-67023809D02*
X129425180Y-67023809D01*
X129425180Y-65928571D02*
X129425180Y-66404761D01*
X129425180Y-66404761D02*
X128948990Y-66452380D01*
X128948990Y-66452380D02*
X128996609Y-66404761D01*
X128996609Y-66404761D02*
X129044228Y-66309523D01*
X129044228Y-66309523D02*
X129044228Y-66071428D01*
X129044228Y-66071428D02*
X128996609Y-65976190D01*
X128996609Y-65976190D02*
X128948990Y-65928571D01*
X128948990Y-65928571D02*
X128853752Y-65880952D01*
X128853752Y-65880952D02*
X128615657Y-65880952D01*
X128615657Y-65880952D02*
X128520419Y-65928571D01*
X128520419Y-65928571D02*
X128472800Y-65976190D01*
X128472800Y-65976190D02*
X128425180Y-66071428D01*
X128425180Y-66071428D02*
X128425180Y-66309523D01*
X128425180Y-66309523D02*
X128472800Y-66404761D01*
X128472800Y-66404761D02*
X128520419Y-66452380D01*
X129425180Y-65261904D02*
X129425180Y-65166666D01*
X129425180Y-65166666D02*
X129377561Y-65071428D01*
X129377561Y-65071428D02*
X129329942Y-65023809D01*
X129329942Y-65023809D02*
X129234704Y-64976190D01*
X129234704Y-64976190D02*
X129044228Y-64928571D01*
X129044228Y-64928571D02*
X128806133Y-64928571D01*
X128806133Y-64928571D02*
X128615657Y-64976190D01*
X128615657Y-64976190D02*
X128520419Y-65023809D01*
X128520419Y-65023809D02*
X128472800Y-65071428D01*
X128472800Y-65071428D02*
X128425180Y-65166666D01*
X128425180Y-65166666D02*
X128425180Y-65261904D01*
X128425180Y-65261904D02*
X128472800Y-65357142D01*
X128472800Y-65357142D02*
X128520419Y-65404761D01*
X128520419Y-65404761D02*
X128615657Y-65452380D01*
X128615657Y-65452380D02*
X128806133Y-65499999D01*
X128806133Y-65499999D02*
X129044228Y-65499999D01*
X129044228Y-65499999D02*
X129234704Y-65452380D01*
X129234704Y-65452380D02*
X129329942Y-65404761D01*
X129329942Y-65404761D02*
X129377561Y-65357142D01*
X129377561Y-65357142D02*
X129425180Y-65261904D01*
X129425180Y-64309523D02*
X129425180Y-64214285D01*
X129425180Y-64214285D02*
X129377561Y-64119047D01*
X129377561Y-64119047D02*
X129329942Y-64071428D01*
X129329942Y-64071428D02*
X129234704Y-64023809D01*
X129234704Y-64023809D02*
X129044228Y-63976190D01*
X129044228Y-63976190D02*
X128806133Y-63976190D01*
X128806133Y-63976190D02*
X128615657Y-64023809D01*
X128615657Y-64023809D02*
X128520419Y-64071428D01*
X128520419Y-64071428D02*
X128472800Y-64119047D01*
X128472800Y-64119047D02*
X128425180Y-64214285D01*
X128425180Y-64214285D02*
X128425180Y-64309523D01*
X128425180Y-64309523D02*
X128472800Y-64404761D01*
X128472800Y-64404761D02*
X128520419Y-64452380D01*
X128520419Y-64452380D02*
X128615657Y-64499999D01*
X128615657Y-64499999D02*
X128806133Y-64547618D01*
X128806133Y-64547618D02*
X129044228Y-64547618D01*
X129044228Y-64547618D02*
X129234704Y-64499999D01*
X129234704Y-64499999D02*
X129329942Y-64452380D01*
X129329942Y-64452380D02*
X129377561Y-64404761D01*
X129377561Y-64404761D02*
X129425180Y-64309523D01*
X129425180Y-63357142D02*
X129425180Y-63261904D01*
X129425180Y-63261904D02*
X129377561Y-63166666D01*
X129377561Y-63166666D02*
X129329942Y-63119047D01*
X129329942Y-63119047D02*
X129234704Y-63071428D01*
X129234704Y-63071428D02*
X129044228Y-63023809D01*
X129044228Y-63023809D02*
X128806133Y-63023809D01*
X128806133Y-63023809D02*
X128615657Y-63071428D01*
X128615657Y-63071428D02*
X128520419Y-63119047D01*
X128520419Y-63119047D02*
X128472800Y-63166666D01*
X128472800Y-63166666D02*
X128425180Y-63261904D01*
X128425180Y-63261904D02*
X128425180Y-63357142D01*
X128425180Y-63357142D02*
X128472800Y-63452380D01*
X128472800Y-63452380D02*
X128520419Y-63499999D01*
X128520419Y-63499999D02*
X128615657Y-63547618D01*
X128615657Y-63547618D02*
X128806133Y-63595237D01*
X128806133Y-63595237D02*
X129044228Y-63595237D01*
X129044228Y-63595237D02*
X129234704Y-63547618D01*
X129234704Y-63547618D02*
X129329942Y-63499999D01*
X129329942Y-63499999D02*
X129377561Y-63452380D01*
X129377561Y-63452380D02*
X129425180Y-63357142D01*
M02*
