%TF.GenerationSoftware,KiCad,Pcbnew,9.0.5*%
%TF.CreationDate,2026-05-14T23:43:19+05:30*%
%TF.ProjectId,14QRT_Custom_IR_Sensor_Improved,31345152-545f-4437-9573-746f6d5f4952,rev?*%
%TF.SameCoordinates,Original*%
%TF.FileFunction,Soldermask,Top*%
%TF.FilePolarity,Negative*%
%FSLAX46Y46*%
G04 Gerber Fmt 4.6, Leading zero omitted, Abs format (unit mm)*
G04 Created by KiCad (PCBNEW 9.0.5) date 2026-05-14 23:43:19*
%MOMM*%
%LPD*%
G01*
G04 APERTURE LIST*
G04 Aperture macros list*
%AMRoundRect*
0 Rectangle with rounded corners*
0 $1 Rounding radius*
0 $2 $3 $4 $5 $6 $7 $8 $9 X,Y pos of 4 corners*
0 Add a 4 corners polygon primitive as box body*
4,1,4,$2,$3,$4,$5,$6,$7,$8,$9,$2,$3,0*
0 Add four circle primitives for the rounded corners*
1,1,$1+$1,$2,$3*
1,1,$1+$1,$4,$5*
1,1,$1+$1,$6,$7*
1,1,$1+$1,$8,$9*
0 Add four rect primitives between the rounded corners*
20,1,$1+$1,$2,$3,$4,$5,0*
20,1,$1+$1,$4,$5,$6,$7,0*
20,1,$1+$1,$6,$7,$8,$9,0*
20,1,$1+$1,$8,$9,$2,$3,0*%
G04 Aperture macros list end*
%ADD10RoundRect,0.250000X-0.262500X-0.450000X0.262500X-0.450000X0.262500X0.450000X-0.262500X0.450000X0*%
%ADD11RoundRect,0.250000X-0.450000X0.262500X-0.450000X-0.262500X0.450000X-0.262500X0.450000X0.262500X0*%
%ADD12C,1.000000*%
%ADD13C,2.500000*%
%ADD14RoundRect,0.500000X0.500000X-0.500000X0.500000X0.500000X-0.500000X0.500000X-0.500000X-0.500000X0*%
%ADD15C,2.000000*%
%ADD16R,1.700000X1.700000*%
%ADD17C,1.700000*%
%ADD18RoundRect,0.250000X-0.475000X0.250000X-0.475000X-0.250000X0.475000X-0.250000X0.475000X0.250000X0*%
%ADD19C,1.400000*%
G04 APERTURE END LIST*
D10*
%TO.C,R27*%
X168437500Y-89480000D03*
X170262500Y-89480000D03*
%TD*%
D11*
%TO.C,R12*%
X113210000Y-72327500D03*
X113210000Y-74152500D03*
%TD*%
%TO.C,R9*%
X106220000Y-76627500D03*
X106220000Y-78452500D03*
%TD*%
D12*
%TO.C,U10*%
X156860000Y-75160000D03*
D13*
X152510000Y-70510000D03*
X156310000Y-70510000D03*
D14*
X153140000Y-73260000D03*
D15*
X155680000Y-73260000D03*
X155680000Y-67760000D03*
X153140000Y-67760000D03*
%TD*%
D10*
%TO.C,R6*%
X78087500Y-118010000D03*
X79912500Y-118010000D03*
%TD*%
D11*
%TO.C,R16*%
X133410000Y-72390000D03*
X133410000Y-74215000D03*
%TD*%
D10*
%TO.C,R25*%
X172647500Y-99770000D03*
X174472500Y-99770000D03*
%TD*%
D11*
%TO.C,R18*%
X142830000Y-72247500D03*
X142830000Y-74072500D03*
%TD*%
%TO.C,R21*%
X166670000Y-84135000D03*
X166670000Y-85960000D03*
%TD*%
D10*
%TO.C,R3*%
X85347500Y-101110000D03*
X87172500Y-101110000D03*
%TD*%
%TO.C,R5*%
X78087500Y-115060000D03*
X79912500Y-115060000D03*
%TD*%
D12*
%TO.C,U14*%
X177480000Y-92730000D03*
D13*
X173130000Y-88080000D03*
X176930000Y-88080000D03*
D14*
X173760000Y-90830000D03*
D15*
X176300000Y-90830000D03*
X176300000Y-85330000D03*
X173760000Y-85330000D03*
%TD*%
D11*
%TO.C,R11*%
X116160000Y-72327500D03*
X116160000Y-74152500D03*
%TD*%
D10*
%TO.C,R1*%
X89647500Y-89400000D03*
X91472500Y-89400000D03*
%TD*%
D16*
%TO.C,J1*%
X111640000Y-82250000D03*
D17*
X114180000Y-82250000D03*
X116720000Y-82250000D03*
X119260000Y-82250000D03*
X121800000Y-82250000D03*
X124340000Y-82250000D03*
X126880000Y-82250000D03*
X129420000Y-82250000D03*
X131960000Y-82250000D03*
X134500000Y-82250000D03*
X137040000Y-82250000D03*
X139580000Y-82250000D03*
X142120000Y-82250000D03*
X144660000Y-82250000D03*
X147200000Y-82250000D03*
X149740000Y-82250000D03*
%TD*%
D12*
%TO.C,U7*%
X127480000Y-70370000D03*
D13*
X123130000Y-65720000D03*
X126930000Y-65720000D03*
D14*
X123760000Y-68470000D03*
D15*
X126300000Y-68470000D03*
X126300000Y-62970000D03*
X123760000Y-62970000D03*
%TD*%
D12*
%TO.C,U13*%
X182630000Y-106630000D03*
D13*
X178280000Y-101980000D03*
X182080000Y-101980000D03*
D14*
X178910000Y-104730000D03*
D15*
X181450000Y-104730000D03*
X181450000Y-99230000D03*
X178910000Y-99230000D03*
%TD*%
D11*
%TO.C,R13*%
X126100000Y-72607500D03*
X126100000Y-74432500D03*
%TD*%
%TO.C,R7*%
X96360000Y-84297500D03*
X96360000Y-86122500D03*
%TD*%
D12*
%TO.C,U5*%
X107460000Y-74330000D03*
D13*
X103110000Y-69680000D03*
X106910000Y-69680000D03*
D14*
X103740000Y-72430000D03*
D15*
X106280000Y-72430000D03*
X106280000Y-66930000D03*
X103740000Y-66930000D03*
%TD*%
D10*
%TO.C,R23*%
X179045000Y-115520000D03*
X180870000Y-115520000D03*
%TD*%
%TO.C,R28*%
X168437500Y-92430000D03*
X170262500Y-92430000D03*
%TD*%
D12*
%TO.C,U11*%
X167440000Y-82370000D03*
D13*
X163090000Y-77720000D03*
X166890000Y-77720000D03*
D14*
X163720000Y-80470000D03*
D15*
X166260000Y-80470000D03*
X166260000Y-74970000D03*
X163720000Y-74970000D03*
%TD*%
D11*
%TO.C,R17*%
X145780000Y-72247500D03*
X145780000Y-74072500D03*
%TD*%
D10*
%TO.C,R4*%
X85347500Y-104060000D03*
X87172500Y-104060000D03*
%TD*%
D12*
%TO.C,U12*%
X188480000Y-120110000D03*
D13*
X184130000Y-115460000D03*
X187930000Y-115460000D03*
D14*
X184760000Y-118210000D03*
D15*
X187300000Y-118210000D03*
X187300000Y-112710000D03*
X184760000Y-112710000D03*
%TD*%
D11*
%TO.C,R22*%
X163720000Y-84135000D03*
X163720000Y-85960000D03*
%TD*%
%TO.C,R19*%
X155720000Y-77397500D03*
X155720000Y-79222500D03*
%TD*%
D10*
%TO.C,R24*%
X179045000Y-118470000D03*
X180870000Y-118470000D03*
%TD*%
D12*
%TO.C,U9*%
X146830000Y-70310000D03*
D13*
X142480000Y-65660000D03*
X146280000Y-65660000D03*
D14*
X143110000Y-68410000D03*
D15*
X145650000Y-68410000D03*
X145650000Y-62910000D03*
X143110000Y-62910000D03*
%TD*%
D11*
%TO.C,R10*%
X103270000Y-76627500D03*
X103270000Y-78452500D03*
%TD*%
D12*
%TO.C,U1*%
X87370000Y-92060000D03*
D13*
X83020000Y-87410000D03*
X86820000Y-87410000D03*
D14*
X83650000Y-90160000D03*
D15*
X86190000Y-90160000D03*
X86190000Y-84660000D03*
X83650000Y-84660000D03*
%TD*%
D11*
%TO.C,R8*%
X93410000Y-84297500D03*
X93410000Y-86122500D03*
%TD*%
D12*
%TO.C,U4*%
X97370000Y-82390000D03*
D13*
X93020000Y-77740000D03*
X96820000Y-77740000D03*
D14*
X93650000Y-80490000D03*
D15*
X96190000Y-80490000D03*
X96190000Y-74990000D03*
X93650000Y-74990000D03*
%TD*%
D11*
%TO.C,R14*%
X123150000Y-72607500D03*
X123150000Y-74432500D03*
%TD*%
%TO.C,R15*%
X136240000Y-72390000D03*
X136240000Y-74215000D03*
%TD*%
D12*
%TO.C,U8*%
X137190000Y-70270000D03*
D13*
X132840000Y-65620000D03*
X136640000Y-65620000D03*
D14*
X133470000Y-68370000D03*
D15*
X136010000Y-68370000D03*
X136010000Y-62870000D03*
X133470000Y-62870000D03*
%TD*%
D12*
%TO.C,U2*%
X82540000Y-106280000D03*
D13*
X78190000Y-101630000D03*
X81990000Y-101630000D03*
D14*
X78820000Y-104380000D03*
D15*
X81360000Y-104380000D03*
X81360000Y-98880000D03*
X78820000Y-98880000D03*
%TD*%
D10*
%TO.C,R26*%
X172897500Y-104650000D03*
X174722500Y-104650000D03*
%TD*%
D12*
%TO.C,U3*%
X75680000Y-119960000D03*
D13*
X71330000Y-115310000D03*
X75130000Y-115310000D03*
D14*
X71960000Y-118060000D03*
D15*
X74500000Y-118060000D03*
X74500000Y-112560000D03*
X71960000Y-112560000D03*
%TD*%
D10*
%TO.C,R2*%
X89647500Y-92350000D03*
X91472500Y-92350000D03*
%TD*%
D18*
%TO.C,C1*%
X155960000Y-89700000D03*
X155960000Y-91600000D03*
%TD*%
D19*
%TO.C,Vin*%
X105640000Y-88810000D03*
X108180000Y-88810000D03*
%TD*%
D11*
%TO.C,R20*%
X152770000Y-77397500D03*
X152770000Y-79222500D03*
%TD*%
D19*
%TO.C,GND*%
X105640000Y-83930000D03*
X108180000Y-83930000D03*
%TD*%
D12*
%TO.C,U6*%
X117260000Y-70250000D03*
D13*
X112910000Y-65600000D03*
X116710000Y-65600000D03*
D14*
X113540000Y-68350000D03*
D15*
X116080000Y-68350000D03*
X116080000Y-62850000D03*
X113540000Y-62850000D03*
%TD*%
M02*
